<svg version="1.1" viewBox="0.0 0.0 288.0 720.0" fill="none" stroke="none" stroke-linecap="square" stroke-miterlimit="10" xmlns:xlink="http://www.w3.org/1999/xlink" xmlns="http://www.w3.org/2000/svg"><clipPath id="p.0"><path d="m0 0l288.0 0l0 720.0l-288.0 0l0 -720.0z" clip-rule="nonzero"/></clipPath><g clip-path="url(#p.0)"><path fill="#000000" fill-opacity="0.0" d="m0 0l288.0 0l0 720.0l-288.0 0z" fill-rule="evenodd"/><path fill="#000000" fill-opacity="0.0" d="m144.48419 95.87891l0 0c0 -8.300377 6.7287903 -15.029167 15.029175 -15.029167l60.114883 0l0 0c3.9859772 0 7.8087006 1.5834274 10.627228 4.4019394c2.818512 2.8185196 4.401932 6.6412506 4.401932 10.627228l0 64.30386c0 8.3003845 -6.7287903 15.029175 -15.02916 15.029175l-60.114883 0l0 0c-8.3003845 0 -15.029175 -6.7287903 -15.029175 -15.029175z" fill-rule="evenodd"/><path stroke="#ffffff" stroke-width="12.0" stroke-linejoin="round" stroke-linecap="butt" d="m144.48419 95.87891l0 0c0 -8.300377 6.7287903 -15.029167 15.029175 -15.029167l60.114883 0l0 0c3.9859772 0 7.8087006 1.5834274 10.627228 4.4019394c2.818512 2.8185196 4.401932 6.6412506 4.401932 10.627228l0 64.30386c0 8.3003845 -6.7287903 15.029175 -15.02916 15.029175l-60.114883 0l0 0c-8.3003845 0 -15.029175 -6.7287903 -15.029175 -15.029175z" fill-rule="evenodd"/><path fill="#000000" fill-opacity="0.0" d="m144.48419 95.87891l0 0c0 -8.300377 6.7287903 -15.029167 15.029175 -15.029167l60.114883 0l0 0c3.9859772 0 7.8087006 1.5834274 10.627228 4.4019394c2.818512 2.8185196 4.401932 6.6412506 4.401932 10.627228l0 64.30386c0 8.3003845 -6.7287903 15.029175 -15.02916 15.029175l-60.114883 0l0 0c-8.3003845 0 -15.029175 -6.7287903 -15.029175 -15.029175z" fill-rule="evenodd"/><path stroke="#0000ff" stroke-width="4.0" stroke-linejoin="round" stroke-linecap="butt" stroke-dasharray="16.0,12.0" d="m144.48419 95.87891l0 0c0 -8.300377 6.7287903 -15.029167 15.029175 -15.029167l60.114883 0l0 0c3.9859772 0 7.8087006 1.5834274 10.627228 4.4019394c2.818512 2.8185196 4.401932 6.6412506 4.401932 10.627228l0 64.30386c0 8.3003845 -6.7287903 15.029175 -15.02916 15.029175l-60.114883 0l0 0c-8.3003845 0 -15.029175 -6.7287903 -15.029175 -15.029175z" fill-rule="evenodd"/></g></svg>