<?xml version="1.0" encoding="UTF-8" standalone="no"?>
<!-- Created with Inkscape (http://www.inkscape.org/) -->

<svg
   width="512"
   height="512"
   viewBox="0 0 135.46667 135.46666"
   version="1.1"
   id="svg1"
   xml:space="preserve"
   sodipodi:docname="favicon.svg"
   inkscape:version="1.3 (0e150ed6c4, 2023-07-21)"
   xmlns:inkscape="http://www.inkscape.org/namespaces/inkscape"
   xmlns:sodipodi="http://sodipodi.sourceforge.net/DTD/sodipodi-0.dtd"
   xmlns="http://www.w3.org/2000/svg"
   xmlns:svg="http://www.w3.org/2000/svg"><sodipodi:namedview
     id="namedview1"
     pagecolor="#ffffff"
     bordercolor="#000000"
     borderopacity="0.25"
     inkscape:showpageshadow="2"
     inkscape:pageopacity="0.0"
     inkscape:pagecheckerboard="0"
     inkscape:deskcolor="#d1d1d1"
     inkscape:document-units="mm"
     inkscape:zoom="1"
     inkscape:cx="408"
     inkscape:cy="244.5"
     inkscape:window-width="1920"
     inkscape:window-height="991"
     inkscape:window-x="-9"
     inkscape:window-y="-9"
     inkscape:window-maximized="1"
     inkscape:current-layer="layer1"
     showgrid="false" /><defs
     id="defs1" /><g
     inkscape:label="Layer 1"
     inkscape:groupmode="layer"
     id="layer1"
     transform="matrix(2.0078382,0,0,2.0078382,-129.23867,-440.51974)"><ellipse
       style="fill:#000000;stroke-width:0.0855205"
       id="path6"
       cx="96.630638"
       cy="252.88077"
       rx="30.616385"
       ry="16.077881"
       inkscape:label="Background" /><path
       id="path62506"
       style="display:inline;fill:#000000;fill-opacity:1;fill-rule:evenodd;stroke:none;stroke-width:0.024595"
       inkscape:label="Green Stripe Border"
       d="m 96.159263,234.41828 c -7.571288,0.14348 -15.261497,1.56276 -21.993877,5.14853 -3.600771,1.95467 -6.984371,4.69344 -8.7792,8.4587 -1.437209,3.07243 -1.363191,6.81429 0.278605,9.79474 1.502994,2.89371 4.023463,5.1231 6.714069,6.8832 1.223157,0.75854 1.095528,0.45118 1.297613,-0.96673 0.339026,-1.00523 0.711583,-1.99874 1.066265,-2.99849 -2.267822,-1.76247 -4.361711,-4.12564 -4.77687,-7.06884 -0.439628,-2.92221 1.094558,-5.78612 3.196665,-7.72016 3.501408,-3.32326 8.185118,-5.14257 12.777527,-6.25742 6.801312,-1.601 13.882477,-1.64525 20.72637,-0.30722 0.45666,0.0561 0.93217,0.26518 1.37383,0.24244 1.96913,-1.16349 4.19563,-1.76737 6.31923,-2.57797 -5.44873,-1.62579 -11.10735,-2.61087 -16.802512,-2.63365 -0.465901,-0.005 -0.931826,-0.002 -1.397715,0.003 z m 25.671777,6.9691 c 0.0959,1.7652 0.0787,3.54821 -0.30773,5.28195 1.76814,1.94421 2.94204,4.62995 2.44237,7.28745 -0.48377,2.77694 -2.44305,5.02622 -4.65748,6.64438 -0.79875,0.60449 -1.65432,1.12664 -2.49359,1.67169 0.85051,0.77599 1.37402,1.95971 1.10296,3.1128 -0.0565,0.74667 0.96311,1.09328 1.46789,0.61685 3.54171,-1.90285 6.92994,-4.44974 8.86925,-8.05485 1.60246,-2.9539 1.8144,-6.64558 0.40581,-9.71589 -1.25876,-2.89505 -3.60263,-5.1295 -6.07138,-7.01377 -0.3341,-0.26762 -1.34063,-1.13933 -1.24177,-0.53757 0.005,0.17216 0.47896,0.5348 0.48367,0.70696 z m -36.335104,24.14398 c -1.848413,0.22361 -3.74058,0.20229 -5.549286,0.67802 -0.58962,0.10811 -7.553131,-1.78035 -7.057093,-1.35663 0.300969,0.2373 2.22725,1.54222 3.466502,2.0649 1.677025,0.7073 3.493191,1.03923 5.27529,1.40914 3.972408,0.82455 7.987238,1.48668 12.037651,1.79837 0.679216,0.0335 1.362612,0.097 2.045207,0.10709 1.23766,0.0183 3.035068,-0.0122 3.712426,-0.0845 1.001247,-0.1251 5.513627,-0.17298 6.351457,-0.44426 -1.16158,-0.73502 -7.919026,-1.81855 -9.325078,-1.90029 -3.658358,-0.63152 -7.295734,-1.371 -10.894439,-2.27725 z"
       sodipodi:nodetypes="ccccccccccccccccsccccccccccsscccaacaccccc" /><path
       id="path40932-6"
       style="display:inline;fill:#019d04;fill-opacity:1;fill-rule:evenodd;stroke:none;stroke-width:0.024595"
       d="m 85.473025,266.64525 c 3.746556,0.9592 8.501505,1.88865 12.120658,2.47425 -4.155324,0.21767 -11.837323,-0.99585 -16.591781,-2.06253 z m 22.330525,-28.15218 c -3.33237,-0.75261 -6.98793,-1.17072 -10.822776,-1.17072 -15.575022,0 -28.201328,6.862 -28.201328,15.32933 0,3.11913 1.71464,6.02109 4.659497,8.44198 l -0.858711,2.40293 c -4.450069,-2.95361 -7.121109,-6.72944 -7.121109,-10.84491 0,-9.46342 14.113072,-17.13214 31.521651,-17.13214 4.901046,0 9.540636,0.6075 13.677526,1.69213 -0.9966,0.33449 -1.94867,0.76245 -2.85475,1.2814 z m 20.69958,14.15836 c 0,4.80045 -3.58297,9.13974 -9.43532,12.25053 0.0716,-0.73687 -0.10182,-1.66165 -0.63282,-2.35892 4.31098,-2.69192 6.74784,-6.04274 6.74784,-9.89161 0,-2.24332 -0.88762,-4.37448 -2.48087,-6.29288 0.23093,-1.22975 0.3271,-2.36603 0.28037,-3.39411 3.4819,2.75464 5.5208,6.09169 5.5208,9.68699"
       inkscape:connector-curvature="0"
       inkscape:label="Green Stripe" /><path
       id="path62505"
       style="display:inline;fill:#000000;fill-opacity:1;fill-rule:evenodd;stroke:none;stroke-width:0.024595"
       inkscape:label="20 Border"
       d="m 115.09889,236.70591 c -4.74392,0.16809 -9.22215,2.71303 -12.13084,6.41058 -0.76697,0.93489 -1.4583,1.93166 -2.07967,2.96868 0.39394,-1.61198 0.44995,-3.46224 -0.56646,-4.868 -1.04321,-1.59816 -2.998846,-2.22322 -4.806512,-2.41057 -3.02187,-0.259 -6.108912,0.17302 -8.949792,1.23305 -3.13902,1.16495 -5.846425,3.45806 -7.438613,6.41125 -0.763332,1.34566 -1.313606,2.79875 -1.783453,4.26943 3.441916,-0.31729 6.883823,-0.6347 10.32563,-0.95316 0.412996,-1.08328 0.812203,-2.48092 2.065671,-2.84048 0.300016,-0.0415 -0.101729,0.57937 -0.148423,0.77752 -0.777043,1.3967 -2.049549,2.4292 -3.235922,3.46668 -3.37323,2.80271 -7.247268,4.95869 -10.918349,7.39526 -0.56707,0.30272 -1.110818,0.7613 -1.208857,1.43326 -0.90758,2.53889 -1.815119,5.07779 -2.722724,7.61668 7.496957,-0.69134 14.993963,-1.38217 22.490891,-2.07384 1.00334,-2.8103 2.008547,-5.61994 3.012039,-8.43018 -0.219518,2.13588 0.05104,4.53989 1.579551,6.17114 1.366247,1.43451 3.411663,1.96689 5.341843,1.90957 4.6915,0.0319 9.21409,-2.31437 12.21189,-5.86794 2.8469,-3.26445 4.69829,-7.29766 5.83483,-11.44962 0.64572,-2.49917 1.05086,-5.25801 0.0269,-7.71473 -0.75428,-1.73184 -2.43172,-2.95614 -4.28021,-3.26993 -0.86022,-0.1794 -1.74331,-0.2105 -2.61943,-0.18465 z m -2.95077,8.38387 c -0.29333,2.12061 -1.12303,4.13892 -1.80654,6.12808 -0.68189,1.75756 -1.30043,3.57947 -2.38199,5.13984 -0.16377,0.1979 -0.35781,0.3777 -0.59369,0.48475 0.5669,-3.00383 1.75699,-5.86499 2.84505,-8.6906 0.45994,-1.02688 0.88152,-2.13921 1.70101,-2.93712 0.0635,-0.0476 0.184,-0.14175 0.23616,-0.12495 z m -13.516044,5.72179 c -0.70097,1.93449 -1.323796,3.91678 -1.591805,5.9628 -1.999878,0.18405 -3.999708,0.36859 -5.999568,0.55285 2.848376,-1.8754 5.634375,-3.97215 7.678521,-6.73897 -0.02905,0.0745 -0.0581,0.14887 -0.08715,0.22332 z" /><path
       id="path40934-4"
       style="display:inline;fill:#ffffff;fill-opacity:1;fill-rule:evenodd;stroke:none;stroke-width:0.024595"
       d="m 75.440975,259.87669 6.375759,-4.08497 c 5.957153,-3.8137 8.420832,-6.47242 9.005209,-8.12472 0.524858,-1.48307 -0.113874,-1.9553 -1.031267,-1.87167 -1.076032,0.0983 -2.168294,0.86574 -2.91426,2.93417 l -7.910242,0.72827 c 2.190184,-6.09735 6.868643,-8.96021 13.133234,-9.53818 7.625922,-0.70342 8.852712,2.81612 7.45179,6.77591 -1.395519,3.92635 -4.681902,7.22748 -12.930324,12.08451 l -0.01107,0.0681 8.891336,-0.81952 -2.31488,6.47638 -20.059749,1.8483 z m 31.814845,-1.89775 c 1.20294,-0.11091 2.126,-0.79564 4.42883,-7.20411 2.27159,-6.40601 1.80232,-6.96186 0.60036,-6.85118 -1.20245,0.11068 -2.11146,0.79932 -4.39709,7.20116 -2.28978,6.41342 -1.83455,6.96481 -0.6321,6.85413 z m 7.21347,-20.12042 c 7.11925,-0.65423 8.49115,4.24756 5.69496,12.13542 -2.82768,7.88909 -7.94171,13.3905 -15.06098,14.04621 -7.118772,0.65619 -8.5229,-4.24511 -5.695214,-12.13444 2.796204,-7.88615 7.942214,-13.3905 15.061234,-14.04719"
       inkscape:connector-curvature="0"
       inkscape:label="20"
       sodipodi:nodetypes="cccccccccccccccccscccccc" /><path
       id="path3"
       style="display:inline;fill:#000000;fill-opacity:1;fill-rule:evenodd;stroke:none;stroke-width:0.0245949"
       inkscape:label="Top Rocket Fin Border"
       d="m 118.86571,259.34002 c -2.13744,0.1096 -4.38587,1.25278 -5.24043,3.29965 -0.18884,0.64313 -0.11685,1.32395 -0.16696,1.9848 1.51694,-0.25036 3.03345,-0.50341 4.55053,-0.75294 -0.2201,-0.77126 0.11328,-1.69094 0.8974,-1.9844 0.64744,-0.28462 1.54924,-0.57693 1.59081,-1.42026 0.0532,-0.87367 -0.91355,-1.20337 -1.63135,-1.12685 z" /><path
       id="path4"
       style="display:inline;fill:#000000;fill-opacity:1;fill-rule:evenodd;stroke:none;stroke-width:0.0245949"
       inkscape:label="Bottom Rocket Fin Border"
       d="m 117.74012,264.88051 c -1.27008,0.41066 -2.52309,0.90917 -3.79126,1.34109 0.43463,1.32 1.62198,2.33195 2.99568,2.54321 1.73999,0.36214 3.70037,0.0578 5.08626,-1.10201 0.65783,-0.71192 -0.14487,-1.97763 -1.06601,-1.74162 -0.82381,0.0577 -1.9431,0.23161 -2.42991,-0.62237 -0.17643,-0.25578 -0.47615,-0.44478 -0.79476,-0.4183 z" /><path
       id="path2"
       style="display:inline;fill:#000000;fill-opacity:1;fill-rule:evenodd;stroke:none;stroke-width:0.0245949"
       inkscape:label="Rocket Border"
       d="m 116.78566,261.9854 c -3.90686,0.66679 -7.82582,1.33386 -11.64377,2.41092 -2.53332,0.84669 -4.6347,2.57545 -6.529705,4.40385 -0.342699,0.31358 -0.685203,0.62737 -1.027467,0.94142 2.673662,0.47147 5.354692,1.27977 8.097252,0.96446 2.51868,-0.26449 4.87277,-1.2627 7.2772,-1.99038 1.80819,-0.6012 3.60604,-1.23175 5.39318,-1.89326 1.02825,-0.8919 0.9162,-2.47125 0.3178,-3.57368 -0.34632,-0.70301 -1.06051,-1.32094 -1.88449,-1.26333 z" /><path
       id="path40936-8"
       style="display:inline;fill:#2d6412;fill-opacity:1;fill-rule:evenodd;stroke:none;stroke-width:0.024595"
       d="m 114.53717,263.4019 c -2.87097,0.52511 -6.48816,1.25731 -7.88662,1.62844 -2.50673,0.66553 -2.809,1.08094 -3.80879,1.63384 -1.0384,0.57431 -2.21355,1.6978 -3.03035,2.4263 l -0.02016,0.0195 c 0.01156,10e-4 0.01673,0.003 0.02976,0.005 1.08882,0.2248 2.68799,0.61709 3.88527,0.60012 1.15301,-0.0162 1.63778,0.19135 4.14572,-0.46927 1.38888,-0.36597 4.85088,-1.50694 7.5883,-2.46319 l 2.29152,-0.81778 c 0.005,-0.002 0.012,-0.007 0.0167,-0.009 0.43706,-0.4304 0.41001,-0.93805 0.23858,-1.64835 -7.6e-4,-9.9e-4 0,-0.007 -5.5e-4,-0.008 -5.6e-4,-0.003 5.5e-4,-0.005 -1.8e-4,-0.008 -0.22234,-0.67391 -0.4646,-1.12129 -1.0298,-1.28879 l -2.41941,0.40017 v 0"
       inkscape:connector-curvature="0"
       inkscape:label="Rocket" /><path
       id="path40938-1"
       style="display:inline;fill:#ffffff;fill-opacity:1;fill-rule:evenodd;stroke:none;stroke-width:0.024595"
       d="m 119.04986,260.3681 c -0.37483,0.009 -0.88001,0.0883 -1.00224,0.10994 -1.8343,0.32368 -3.56972,1.85324 -3.51045,2.92386 l 2.41941,-0.40016 c 0.004,-0.21817 0.0541,-0.42895 0.17708,-0.76835 0.14708,-0.40533 0.51035,-0.71669 0.84017,-0.98232 0.4373,-0.3522 1.51185,-0.69505 1.49218,-0.79812 -0.0125,-0.0657 -0.19111,-0.0903 -0.41615,-0.0848 v 0"
       inkscape:connector-curvature="0"
       inkscape:label="Top Rocket Fin" /><path
       id="path40940-9"
       style="display:inline;fill:#ffffff;fill-opacity:1;fill-rule:evenodd;stroke:none;stroke-width:0.024595"
       d="m 115.4403,266.78249 c 0.52486,0.94272 2.79473,1.43314 4.53974,0.84213 0.18766,-0.0637 1.30943,-0.48944 1.24819,-0.65718 -0.0364,-0.0991 -1.15006,0.11584 -1.71131,0.0192 -0.42303,-0.0728 -0.90215,-0.17168 -1.23885,-0.45329 -0.2767,-0.23144 -0.4314,-0.38589 -0.54625,-0.56864 l -2.29152,0.81779"
       inkscape:connector-curvature="0"
       inkscape:label="Bottom Rocket Fin" /><path
       id="path40942-24"
       style="display:inline;fill:#f4fcf0;fill-opacity:1;fill-rule:nonzero;stroke:none;stroke-width:0.024595"
       d="m 101.23841,267.82384 0.50149,-0.17807 0.0993,-0.30793 c 0.0465,-0.0359 0.0932,-0.0711 0.13995,-0.10576 l -0.15028,0.46534 -0.007,0.0232 -0.0234,0.008 -0.76712,0.27226 c 0.0684,-0.0593 0.13749,-0.11855 0.20734,-0.17733 z m 15.35465,-1.7364 c 0.0474,0 0.0908,0.0185 0.12175,0.0487 0.0312,0.0297 0.0507,0.0713 0.0507,0.11731 0,0.0211 -0.004,0.0416 -0.012,0.0603 l -0.24127,0.0863 c -0.015,-0.008 -0.0287,-0.0177 -0.0409,-0.0295 -0.0312,-0.0297 -0.0504,-0.0713 -0.0504,-0.11708 0,-0.0457 0.0192,-0.0871 0.0504,-0.11731 v 0 0 c 0.0312,-0.0302 0.0743,-0.0487 0.12174,-0.0487 z m 0.0504,0.11755 c -0.013,-0.0125 -0.0307,-0.0202 -0.0504,-0.0202 -0.0197,0 -0.0377,0.008 -0.0502,0.0199 l -1.9e-4,1.9e-4 c -0.0128,0.0123 -0.0207,0.0292 -0.0207,0.0484 0,0.0187 0.008,0.0359 0.0209,0.0482 0.0128,0.0125 0.0305,0.0202 0.0502,0.0202 0.0197,0 0.0374,-0.008 0.0504,-0.02 v -1.9e-4 c 0.0128,-0.0123 0.0207,-0.0295 0.0207,-0.0482 0,-0.019 -0.008,-0.0362 -0.0207,-0.0484 z m -0.50568,-0.349 c 0.0474,0 0.0908,0.0187 0.12199,0.0486 0.031,0.0299 0.0504,0.0716 0.0504,0.11732 0,0.0455 -0.0194,0.0871 -0.0504,0.11708 l -5.5e-4,1.8e-4 c -0.031,0.0299 -0.074,0.0487 -0.1215,0.0487 -0.0477,0 -0.0908,-0.0187 -0.12174,-0.0487 -0.0312,-0.0299 -0.0507,-0.0716 -0.0507,-0.11732 0,-0.0457 0.0194,-0.0871 0.0507,-0.11707 v -1.9e-4 0 c 0.0315,-0.03 0.0743,-0.0486 0.12174,-0.0486 z m 0.0504,0.11757 c -0.013,-0.0125 -0.0307,-0.0202 -0.0504,-0.0202 -0.0197,0 -0.0376,0.008 -0.0502,0.02 l -1.9e-4,1.8e-4 c -0.0127,0.0123 -0.0207,0.0295 -0.0207,0.0484 0,0.019 0.008,0.0359 0.0209,0.0484 0.0128,0.0123 0.0305,0.02 0.0502,0.02 0.0197,0 0.0376,-0.008 0.0504,-0.0197 v -1.8e-4 c 0.0128,-0.0125 0.0207,-0.0295 0.0207,-0.0484 0,-0.019 -0.008,-0.0362 -0.0207,-0.0484 z m -0.56888,-0.36721 c 0.0474,0 0.0905,0.0185 0.12174,0.0487 0.0312,0.0299 0.0504,0.0716 0.0504,0.11732 0,0.0457 -0.0192,0.0871 -0.0504,0.11707 v 1.9e-4 c -0.0312,0.0299 -0.0743,0.0484 -0.12174,0.0484 -0.0477,0 -0.0908,-0.0185 -0.12199,-0.0484 -0.031,-0.0299 -0.0504,-0.0716 -0.0504,-0.11732 0,-0.0455 0.0194,-0.0871 0.0504,-0.11732 h 1.8e-4 v 0 c 0.0312,-0.0302 0.0743,-0.0487 0.12175,-0.0487 z m 0.0502,0.11756 c -0.0128,-0.0125 -0.0305,-0.0202 -0.0502,-0.0202 -0.0199,0 -0.0376,0.008 -0.0504,0.02 v 1.8e-4 c -0.0128,0.0123 -0.0209,0.0292 -0.0209,0.0484 0,0.019 0.008,0.0359 0.0209,0.0484 0.013,0.0123 0.0307,0.02 0.0504,0.02 0.0197,0 0.0374,-0.008 0.0502,-0.02 h 1.8e-4 c 0.0128,-0.0125 0.0207,-0.0295 0.0207,-0.0484 0,-0.019 -0.008,-0.0362 -0.0209,-0.0484 z m -1.03053,0.18078 c 0.0477,0 0.0908,0.0187 0.12198,0.0487 0.0312,0.0299 0.0504,0.0716 0.0504,0.11732 0,0.0457 -0.0192,0.0871 -0.0504,0.11707 l -1.8e-4,1.8e-4 c -0.0312,0.03 -0.0743,0.0487 -0.12174,0.0487 -0.0474,0 -0.0905,-0.0187 -0.12175,-0.0487 -0.031,-0.0299 -0.0504,-0.0716 -0.0504,-0.11731 0,-0.0457 0.0192,-0.0871 0.0504,-0.11732 h 1.9e-4 v 0 c 0.0312,-0.03 0.0743,-0.0487 0.1215,-0.0487 z m 0.0504,0.11756 c -0.0128,-0.0123 -0.0305,-0.0202 -0.0504,-0.0202 -0.0197,0 -0.0374,0.008 -0.0502,0.0199 l -1.8e-4,1.9e-4 c -0.0128,0.0123 -0.0207,0.0292 -0.0207,0.0484 0,0.019 0.008,0.0359 0.0209,0.0484 0.0128,0.0123 0.0307,0.0199 0.0502,0.0199 0.0199,0 0.0376,-0.007 0.0504,-0.0197 l 1.9e-4,-1.9e-4 c 0.0128,-0.0125 0.0207,-0.0295 0.0207,-0.0484 0,-0.019 -0.008,-0.0362 -0.0209,-0.0484 z m 0.58216,-1.29271 c 0.0474,0 0.0905,0.0187 0.12175,0.0487 0.0312,0.0299 0.0504,0.0713 0.0504,0.11732 0,0.0455 -0.0192,0.0871 -0.0504,0.11707 l -1.9e-4,1.8e-4 c -0.031,0.0299 -0.074,0.0484 -0.1215,0.0484 -0.0477,0 -0.0908,-0.0185 -0.12198,-0.0484 -0.031,-0.0299 -0.0504,-0.0716 -0.0504,-0.11731 0,-0.0457 0.0192,-0.0871 0.0504,-0.11707 l 1.7e-4,-1.9e-4 v 0 c 0.0312,-0.0299 0.0743,-0.0487 0.12175,-0.0487 z m 0.0502,0.11756 c -0.0128,-0.0123 -0.0305,-0.0202 -0.0502,-0.0202 -0.0199,0 -0.0376,0.008 -0.0504,0.0199 l -1.8e-4,1.8e-4 c -0.0125,0.0123 -0.0207,0.0292 -0.0207,0.0484 0,0.019 0.008,0.0362 0.0209,0.0484 0.0128,0.0123 0.0307,0.0199 0.0504,0.0199 0.0197,0 0.0374,-0.008 0.0502,-0.0199 h 1.9e-4 c 0.0128,-0.0123 0.0207,-0.0295 0.0207,-0.0484 0,-0.019 -0.008,-0.0362 -0.0209,-0.0484 z m -1.46045,-0.0689 c 0.0477,0 0.0908,0.0187 0.122,0.0487 0.031,0.0299 0.0504,0.0716 0.0504,0.11732 0,0.0455 -0.0194,0.0871 -0.0504,0.11707 l -1.9e-4,1.8e-4 c -0.0312,0.0299 -0.0743,0.0484 -0.12175,0.0484 -0.0474,0 -0.0905,-0.0185 -0.12174,-0.0484 -0.0312,-0.0299 -0.0504,-0.0716 -0.0504,-0.11731 0,-0.0457 0.0192,-0.0871 0.0504,-0.11708 v -1.8e-4 h 1.9e-4 c 0.0312,-0.0299 0.0743,-0.0487 0.12149,-0.0487 z m 0.0504,0.11756 c -0.0128,-0.0123 -0.0307,-0.0202 -0.0504,-0.0202 -0.0197,0 -0.0374,0.008 -0.0502,0.02 l -1.9e-4,1.9e-4 c -0.0128,0.0123 -0.0207,0.0295 -0.0207,0.0484 0,0.019 0.008,0.0362 0.0209,0.0484 0.0128,0.0123 0.0307,0.02 0.0502,0.02 0.0197,0 0.0376,-0.007 0.0504,-0.0197 l 1.8e-4,-1.9e-4 c 0.0128,-0.0122 0.0207,-0.0295 0.0207,-0.0484 0,-0.019 -0.008,-0.0362 -0.0209,-0.0484 z m -0.10084,-0.78728 c 0.0474,0 0.0905,0.0187 0.12175,0.0484 0.0312,0.0302 0.0504,0.0716 0.0504,0.11732 0,0.0457 -0.0192,0.0873 -0.0504,0.11731 l -1.9e-4,1.9e-4 c -0.0312,0.03 -0.0743,0.0484 -0.1215,0.0484 -0.0474,0 -0.0908,-0.0185 -0.12199,-0.0484 -0.031,-0.0299 -0.0504,-0.0716 -0.0504,-0.11757 0,-0.0455 0.0195,-0.0868 0.0504,-0.11706 h 1.9e-4 v -1.9e-4 c 0.0312,-0.03 0.0743,-0.0484 0.12174,-0.0484 z m 0.0502,0.11756 c -0.0128,-0.0123 -0.0305,-0.0202 -0.0502,-0.0202 -0.0199,0 -0.0376,0.008 -0.0504,0.0199 l -1.9e-4,1.9e-4 c -0.0128,0.0123 -0.0207,0.0292 -0.0207,0.0482 0,0.019 0.008,0.0362 0.0209,0.0487 0.013,0.0122 0.0307,0.0199 0.0504,0.0199 0.0197,0 0.0374,-0.008 0.0502,-0.0199 h 1.8e-4 c 0.0128,-0.0125 0.0207,-0.0295 0.0207,-0.0487 0,-0.0187 -0.008,-0.0359 -0.0209,-0.0482 z m -0.58142,0.86894 c 0.0474,0 0.0908,0.0185 0.12175,0.0484 0.0312,0.0299 0.0506,0.0716 0.0506,0.11733 0,0.0457 -0.0194,0.0871 -0.0506,0.11731 v 0 c -0.0312,0.0299 -0.0743,0.0487 -0.12175,0.0487 -0.0474,0 -0.0908,-0.0187 -0.12175,-0.0487 -0.0312,-0.0299 -0.0504,-0.0713 -0.0504,-0.11731 0,-0.0455 0.0192,-0.0871 0.0504,-0.11708 v -1.9e-4 h 1.8e-4 c 0.0312,-0.0299 0.0743,-0.0484 0.12151,-0.0484 z m 0.0504,0.11732 c -0.013,-0.0123 -0.0307,-0.02 -0.0504,-0.02 -0.0197,0 -0.0376,0.008 -0.0504,0.0197 v 1.8e-4 c -0.0128,0.0123 -0.0207,0.0295 -0.0207,0.0484 0,0.019 0.008,0.0362 0.0207,0.0484 0.013,0.0125 0.0307,0.02 0.0504,0.02 0.0197,0 0.0374,-0.007 0.0504,-0.0197 l 1.8e-4,-1.8e-4 c 0.0128,-0.0123 0.0207,-0.0295 0.0207,-0.0484 0,-0.019 -0.008,-0.0362 -0.0209,-0.0484 z m -2.01064,1.75806 c 0.0477,0 0.0908,0.0185 0.12175,0.0484 0.0312,0.03 0.0507,0.0716 0.0507,0.11731 0,0.0457 -0.0194,0.0873 -0.0507,0.11732 v 0 c -0.0312,0.0302 -0.0743,0.0486 -0.12175,0.0486 -0.0477,0 -0.0908,-0.0185 -0.12199,-0.0486 -0.031,-0.0299 -0.0504,-0.0716 -0.0504,-0.11732 0,-0.0455 0.0194,-0.0871 0.0504,-0.11707 h 1.8e-4 v -1.8e-4 c 0.0315,-0.0299 0.0743,-0.0484 0.12175,-0.0484 z m 0.0502,0.11731 c -0.0128,-0.0123 -0.0305,-0.0199 -0.0502,-0.0199 -0.0197,0 -0.0376,0.008 -0.0502,0.0199 h -1.9e-4 c -0.0128,0.0123 -0.0207,0.0295 -0.0207,0.0484 0,0.019 0.008,0.0362 0.0209,0.0484 0.0125,0.0125 0.0305,0.0202 0.0502,0.0202 0.0197,0 0.0374,-0.008 0.0502,-0.02 l 1.8e-4,-1.8e-4 c 0.0128,-0.0122 0.0207,-0.0295 0.0207,-0.0484 0,-0.019 -0.008,-0.0362 -0.0209,-0.0484 z m -0.77105,-2.09033 c 0.0474,0 0.0908,0.0187 0.12199,0.0486 0.031,0.03 0.0504,0.0716 0.0504,0.11732 0,0.0457 -0.0194,0.0871 -0.0504,0.11707 l -1.8e-4,1.8e-4 c -0.0312,0.0299 -0.0743,0.0484 -0.12175,0.0484 -0.0474,0 -0.0905,-0.0185 -0.12175,-0.0484 -0.0312,-0.0299 -0.0507,-0.0716 -0.0507,-0.11731 0,-0.0455 0.0194,-0.0871 0.0507,-0.11708 v -1.8e-4 0 c 0.0315,-0.0299 0.0746,-0.0486 0.12175,-0.0486 z m 0.0504,0.11756 c -0.013,-0.0123 -0.0307,-0.0199 -0.0504,-0.0199 -0.0199,0 -0.0376,0.008 -0.0504,0.0199 v 0 c -0.0128,0.0123 -0.0207,0.0295 -0.0207,0.0484 0,0.019 0.008,0.0362 0.0207,0.0484 0.013,0.0125 0.0307,0.0202 0.0504,0.0202 0.0197,0 0.0374,-0.008 0.0504,-0.0199 v -1.9e-4 c 0.0128,-0.0123 0.0207,-0.0295 0.0207,-0.0484 0,-0.019 -0.008,-0.0362 -0.0207,-0.0484 z m -1.214,2.17198 c 0.0477,0 0.0908,0.0187 0.12198,0.0487 0.031,0.0299 0.0504,0.0716 0.0504,0.11732 0,0.0455 -0.0194,0.0871 -0.0504,0.11707 l -1.8e-4,1.8e-4 c -0.0312,0.03 -0.0743,0.0484 -0.12174,0.0484 -0.0474,0 -0.0905,-0.0185 -0.12175,-0.0484 -0.0312,-0.0299 -0.0504,-0.0716 -0.0504,-0.11732 0,-0.0457 0.0192,-0.0871 0.0504,-0.11732 h 1.8e-4 v 0 c 0.0312,-0.0299 0.0743,-0.0487 0.12151,-0.0487 z m 0.0504,0.11757 c -0.0127,-0.0125 -0.0307,-0.0202 -0.0504,-0.0202 -0.0197,0 -0.0374,0.008 -0.0502,0.0199 l -1.8e-4,1.8e-4 c -0.0128,0.0122 -0.0207,0.0295 -0.0207,0.0484 0,0.0187 0.008,0.0359 0.0209,0.0484 0.0128,0.0123 0.0307,0.02 0.0502,0.02 0.0197,0 0.0376,-0.008 0.0504,-0.02 h 1.9e-4 c 0.0128,-0.0125 0.0207,-0.0297 0.0207,-0.0484 0,-0.019 -0.008,-0.0362 -0.0209,-0.0484 z m -2.64298,-0.2029 c 0.0477,0 0.0908,0.0187 0.122,0.0487 0.0312,0.0299 0.0504,0.0716 0.0504,0.11731 0,0.0457 -0.0192,0.0871 -0.0504,0.11707 l -1.8e-4,1.9e-4 c -0.0312,0.0299 -0.0743,0.0487 -0.12175,0.0487 -0.0474,0 -0.0905,-0.0187 -0.12174,-0.0487 -0.0312,-0.0299 -0.0504,-0.0716 -0.0504,-0.11732 0,-0.0457 0.0192,-0.0871 0.0504,-0.11707 l 1.7e-4,-1.8e-4 v 0 c 0.0312,-0.0299 0.0741,-0.0487 0.1215,-0.0487 z m 0.0504,0.11756 c -0.0128,-0.0123 -0.0305,-0.0202 -0.0504,-0.0202 -0.0197,0 -0.0374,0.008 -0.0502,0.02 l -1.8e-4,1.9e-4 c -0.0128,0.0122 -0.0207,0.0295 -0.0207,0.0484 0,0.019 0.008,0.0359 0.0209,0.0484 0.0128,0.0123 0.0305,0.0202 0.0502,0.0202 0.0199,0 0.0376,-0.008 0.0504,-0.0199 l 1.9e-4,-1.9e-4 c 0.0125,-0.0125 0.0207,-0.0295 0.0207,-0.0484 0,-0.019 -0.008,-0.0359 -0.0209,-0.0484 z m 0.17733,0.20512 c 0.0474,0 0.0908,0.0187 0.122,0.0487 0.031,0.0299 0.0504,0.0716 0.0504,0.11731 0,0.0457 -0.0195,0.0871 -0.0504,0.11708 l -5.6e-4,1.8e-4 c -0.031,0.0299 -0.074,0.0487 -0.1215,0.0487 -0.0477,0 -0.0908,-0.0187 -0.12174,-0.0487 -0.0312,-0.0299 -0.0507,-0.0716 -0.0507,-0.11731 0,-0.0455 0.0194,-0.0868 0.0507,-0.11707 v 0 -1.9e-4 c 0.0315,-0.0299 0.0743,-0.0487 0.12174,-0.0487 z m 0.0504,0.11757 c -0.013,-0.0122 -0.0307,-0.02 -0.0504,-0.02 -0.0197,0 -0.0377,0.007 -0.0502,0.0197 l -1.9e-4,1.8e-4 c -0.0128,0.0122 -0.0207,0.0295 -0.0207,0.0484 0,0.019 0.008,0.0362 0.0209,0.0484 0.0128,0.0123 0.0305,0.0202 0.0502,0.0202 0.0197,0 0.0377,-0.008 0.0504,-0.0199 v -1.8e-4 c 0.0128,-0.0123 0.0207,-0.0295 0.0207,-0.0484 0,-0.019 -0.008,-0.0362 -0.0207,-0.0484 z m 0.34162,0.0774 c 0.0474,0 0.0905,0.0185 0.12174,0.0484 0.0312,0.0299 0.0507,0.0716 0.0507,0.11732 0,0.0457 -0.0194,0.0873 -0.0507,0.11731 v 0 c -0.0312,0.0302 -0.0743,0.0487 -0.12174,0.0487 -0.0474,0 -0.0908,-0.0185 -0.12175,-0.0487 -0.0312,-0.03 -0.0504,-0.0713 -0.0504,-0.11731 0,-0.0455 0.0192,-0.0868 0.0504,-0.11707 v 0 -1.9e-4 c 0.0312,-0.0299 0.0743,-0.0484 0.12175,-0.0484 z m 0.0504,0.11733 c -0.013,-0.0123 -0.0307,-0.02 -0.0504,-0.02 -0.0197,0 -0.0377,0.008 -0.0504,0.02 v 0 c -0.0128,0.0123 -0.0207,0.0295 -0.0207,0.0484 0,0.019 0.008,0.0362 0.0207,0.0484 0.013,0.0125 0.0307,0.0202 0.0504,0.0202 0.0197,0 0.0374,-0.008 0.0504,-0.02 v -1.8e-4 c 0.0128,-0.0123 0.0207,-0.0295 0.0207,-0.0484 0,-0.019 -0.008,-0.0359 -0.0207,-0.0484 z m 0.36696,-0.19062 c 0.0474,0 0.0908,0.0187 0.12174,0.0487 0.0312,0.0299 0.0504,0.0716 0.0504,0.11733 0,0.0457 -0.0192,0.0871 -0.0504,0.11731 h -1.9e-4 c -0.0312,0.0299 -0.074,0.0487 -0.12149,0.0487 -0.0474,0 -0.0908,-0.0187 -0.12175,-0.0487 -0.0312,-0.0299 -0.0507,-0.0716 -0.0507,-0.11731 0,-0.0455 0.0194,-0.0868 0.0507,-0.11708 v -1.9e-4 0 c 0.0312,-0.0299 0.0743,-0.0487 0.12175,-0.0487 z m 0.0502,0.11781 c -0.0128,-0.0125 -0.0305,-0.0202 -0.0502,-0.0202 -0.0199,0 -0.0376,0.008 -0.0504,0.0197 l -1.7e-4,5.6e-4 c -0.0128,0.012 -0.0207,0.0292 -0.0207,0.0482 0,0.019 0.008,0.0362 0.0209,0.0484 0.013,0.0125 0.0307,0.0202 0.0504,0.0202 0.0197,0 0.0374,-0.008 0.0502,-0.0199 l 1.8e-4,-1.8e-4 c 0.0128,-0.0123 0.0207,-0.0295 0.0207,-0.0484 0,-0.019 -0.008,-0.0359 -0.0209,-0.0482 z m 0.16479,-0.51354 c 0.0474,0 0.0905,0.0187 0.12175,0.0487 0.0312,0.0299 0.0504,0.0716 0.0504,0.11732 0,0.0457 -0.0192,0.0871 -0.0504,0.11732 v 0 c -0.0312,0.03 -0.0743,0.0487 -0.12175,0.0487 -0.0474,0 -0.0908,-0.0187 -0.12174,-0.0487 -0.0312,-0.0299 -0.0507,-0.0716 -0.0507,-0.11732 0,-0.0457 0.0195,-0.0868 0.0507,-0.11707 v -1.9e-4 0 c 0.0315,-0.0299 0.0746,-0.0487 0.12174,-0.0487 z m 0.0502,0.11756 c -0.0128,-0.0123 -0.0305,-0.02 -0.0502,-0.02 -0.0197,0 -0.0376,0.007 -0.0504,0.0197 v 1.9e-4 c -0.0128,0.0122 -0.0207,0.0295 -0.0207,0.0484 0,0.019 0.008,0.0362 0.0207,0.0484 0.013,0.0123 0.0307,0.0202 0.0504,0.0202 0.0197,0 0.0374,-0.008 0.0502,-0.0199 l 5.6e-4,-1.9e-4 c 0.0125,-0.0123 0.0204,-0.0295 0.0204,-0.0484 0,-0.019 -0.008,-0.0362 -0.0209,-0.0484 z m -0.22086,-0.4828 c 0.0474,0 0.0905,0.0187 0.12175,0.0487 0.0312,0.0299 0.0504,0.0713 0.0504,0.11708 0,0.0457 -0.0192,0.0873 -0.0504,0.11732 h -1.9e-4 c -0.031,0.0302 -0.074,0.0487 -0.1215,0.0487 -0.0477,0 -0.0908,-0.0185 -0.12174,-0.0487 -0.0312,-0.0297 -0.0507,-0.0713 -0.0507,-0.11732 0,-0.0455 0.0192,-0.0868 0.0507,-0.11708 v 0 0 c 0.0312,-0.0299 0.0743,-0.0487 0.12174,-0.0487 z m 0.0502,0.11757 c -0.0128,-0.0125 -0.0305,-0.0202 -0.0502,-0.0202 -0.0199,0 -0.0377,0.008 -0.0504,0.02 l -1.9e-4,1.8e-4 c -0.0125,0.0123 -0.0207,0.0292 -0.0207,0.0482 0,0.0192 0.008,0.0362 0.0209,0.0484 0.013,0.0125 0.0307,0.0202 0.0504,0.0202 0.0197,0 0.0374,-0.008 0.0502,-0.0197 l 1.8e-4,-5.5e-4 c 0.0128,-0.0123 0.0207,-0.0292 0.0207,-0.0484 0,-0.0187 -0.008,-0.0359 -0.0209,-0.0482 z m -0.46756,-0.31851 c 0.0474,0 0.0908,0.0185 0.12175,0.0487 0.0312,0.0299 0.0504,0.0713 0.0504,0.11732 0,0.0455 -0.0192,0.0871 -0.0504,0.11707 v 1.8e-4 c -0.0312,0.03 -0.0743,0.0484 -0.12175,0.0484 -0.0474,0 -0.0908,-0.0185 -0.12174,-0.0484 -0.0312,-0.0302 -0.0507,-0.0716 -0.0507,-0.11731 0,-0.0457 0.0194,-0.0871 0.0507,-0.11707 v -1.9e-4 h 1.9e-4 c 0.031,-0.0302 0.074,-0.0487 0.12149,-0.0487 z m 0.0502,0.11757 c -0.0128,-0.0125 -0.0305,-0.0202 -0.0502,-0.0202 -0.0197,0 -0.0376,0.008 -0.0504,0.02 v 1.8e-4 c -0.0128,0.0123 -0.0207,0.0292 -0.0207,0.0484 0,0.019 0.008,0.0362 0.0207,0.0484 0.013,0.0122 0.0307,0.0199 0.0504,0.0199 0.0197,0 0.0374,-0.008 0.0502,-0.0199 h 5.5e-4 c 0.0125,-0.0123 0.0204,-0.0295 0.0204,-0.0484 0,-0.019 -0.008,-0.0362 -0.0209,-0.0484 z m -0.49903,0.0227 c 0.0474,0 0.0905,0.0185 0.12175,0.0484 0.0312,0.0299 0.0504,0.0716 0.0504,0.11731 0,0.0457 -0.0192,0.0871 -0.0504,0.11709 l -1.9e-4,1.7e-4 c -0.0312,0.0299 -0.0743,0.0487 -0.1215,0.0487 -0.0477,0 -0.0908,-0.0187 -0.12199,-0.0487 -0.0312,-0.0299 -0.0504,-0.0716 -0.0504,-0.11732 0,-0.0455 0.0192,-0.0871 0.0504,-0.11706 h 1.9e-4 v -1.9e-4 c 0.0312,-0.0299 0.0743,-0.0484 0.12174,-0.0484 z m 0.0502,0.11731 c -0.0128,-0.0123 -0.0307,-0.0202 -0.0502,-0.0202 -0.0199,0 -0.0377,0.008 -0.0504,0.0202 h -1.9e-4 c -0.0125,0.0123 -0.0207,0.0292 -0.0207,0.0484 0,0.019 0.008,0.0362 0.0209,0.0484 0.0128,0.0123 0.0307,0.02 0.0504,0.02 0.0194,0 0.0374,-0.007 0.0502,-0.02 h 1.9e-4 c 0.0128,-0.0123 0.0207,-0.0295 0.0207,-0.0484 0,-0.019 -0.008,-0.0362 -0.0209,-0.0484 z m 4.48047,-2.9787 -0.58388,1.18302 0.38195,1.50694 1.74305,0.77351 1.52391,-0.49288 0.0344,6.9e-4 0.15174,0.057 -0.14461,0.0499 -0.0271,-0.0101 -1.52538,0.49362 -0.0372,-0.002 -1.78314,-0.79147 -0.0222,-0.01 -0.006,-0.0229 -0.39204,-1.54653 0.003,-0.0322 0.5588,-1.13235 z m -6.5162,5.03509 c 0.0474,0 0.0905,0.0185 0.12174,0.0484 0.0312,0.0299 0.0504,0.0716 0.0504,0.11731 0,0.0457 -0.0192,0.0871 -0.0504,0.11708 l -1.8e-4,1.8e-4 c -0.031,0.0299 -0.0743,0.0486 -0.1215,0.0486 -0.0477,0 -0.0908,-0.0187 -0.12199,-0.0486 -0.0312,-0.0299 -0.0504,-0.0716 -0.0504,-0.11731 0,-0.0455 0.0192,-0.0868 0.0504,-0.11708 h 1.8e-4 v -1.8e-4 c 0.0312,-0.03 0.0743,-0.0484 0.12175,-0.0484 z m 0.0502,0.11731 c -0.0128,-0.0123 -0.0307,-0.0199 -0.0502,-0.0199 -0.0199,0 -0.0376,0.007 -0.0504,0.0197 l -1.7e-4,1.9e-4 c -0.0125,0.0123 -0.0204,0.0295 -0.0204,0.0484 0,0.019 0.008,0.0362 0.0207,0.0484 0.0128,0.0123 0.0307,0.0202 0.0504,0.0202 0.0194,0 0.0374,-0.008 0.0502,-0.0199 l 1.9e-4,-1.9e-4 c 0.0128,-0.0123 0.0207,-0.0295 0.0207,-0.0484 0,-0.019 -0.008,-0.0362 -0.0209,-0.0484 z m 0.37976,-3.51511 c 0.0474,0 0.0905,0.0187 0.12174,0.0487 0.0312,0.0299 0.0504,0.0716 0.0504,0.11732 0,0.0457 -0.0192,0.0871 -0.0504,0.11707 v 1.8e-4 c -0.0312,0.0299 -0.0743,0.0487 -0.12174,0.0487 -0.0477,0 -0.0908,-0.0187 -0.122,-0.0487 -0.031,-0.0299 -0.0504,-0.0716 -0.0504,-0.11731 0,-0.0455 0.0192,-0.0868 0.0504,-0.11732 h 1.8e-4 v 0 c 0.0312,-0.0299 0.0743,-0.0487 0.12175,-0.0487 z m 0.0502,0.11756 c -0.0128,-0.0123 -0.0305,-0.02 -0.0502,-0.02 -0.0197,0 -0.0377,0.007 -0.0504,0.0197 v 1.9e-4 c -0.0128,0.0123 -0.0207,0.0295 -0.0207,0.0484 0,0.019 0.008,0.0362 0.0207,0.0484 0.0128,0.0123 0.0307,0.0202 0.0504,0.0202 0.0197,0 0.0374,-0.008 0.0502,-0.02 l 1.8e-4,-1.8e-4 c 0.0128,-0.0123 0.0207,-0.0295 0.0207,-0.0484 0,-0.019 -0.008,-0.0362 -0.0209,-0.0484 z m -3.63564,2.05614 c 0.0477,0 0.0908,0.0187 0.122,0.0487 0.0312,0.03 0.0504,0.0716 0.0504,0.11733 0,0.0457 -0.0192,0.0871 -0.0504,0.11732 h -1.9e-4 c -0.0312,0.0299 -0.0743,0.0487 -0.12174,0.0487 -0.0475,0 -0.0905,-0.0187 -0.12174,-0.0487 -0.0312,-0.0299 -0.0504,-0.0716 -0.0504,-0.11732 0,-0.0457 0.0192,-0.0871 0.0504,-0.11708 v -1.9e-4 0 c 0.0314,-0.0299 0.0745,-0.0487 0.12174,-0.0487 z m 0.0504,0.11757 c -0.013,-0.0123 -0.0307,-0.02 -0.0504,-0.02 -0.0197,0 -0.0374,0.008 -0.0502,0.0197 l -1.8e-4,1.8e-4 c -0.0128,0.0123 -0.0207,0.0295 -0.0207,0.0484 0,0.019 0.008,0.0362 0.0209,0.0484 0.0128,0.0125 0.0305,0.0199 0.0502,0.0199 0.0197,0 0.0374,-0.007 0.0504,-0.0197 v -1.8e-4 c 0.0128,-0.0123 0.0207,-0.0295 0.0207,-0.0484 0,-0.019 -0.008,-0.0362 -0.0207,-0.0484 z m 1.58735,-0.84213 c 0.0477,0 0.0908,0.0187 0.122,0.0486 0.031,0.0299 0.0504,0.0716 0.0504,0.11732 0,0.0457 -0.0194,0.0871 -0.0504,0.11707 l -1.9e-4,1.8e-4 c -0.0312,0.0299 -0.0743,0.0484 -0.12174,0.0484 -0.0475,0 -0.0905,-0.0185 -0.12174,-0.0484 -0.0312,-0.03 -0.0504,-0.0716 -0.0504,-0.11731 0,-0.0455 0.0192,-0.0871 0.0504,-0.11707 v -1.9e-4 0 c 0.0315,-0.0299 0.0745,-0.0486 0.12174,-0.0486 z m 0.0504,0.11756 c -0.013,-0.0123 -0.0307,-0.0199 -0.0504,-0.0199 -0.0197,0 -0.0374,0.008 -0.0502,0.0199 h -1.8e-4 c -0.0128,0.0123 -0.0207,0.0295 -0.0207,0.0484 0,0.019 0.008,0.0362 0.0209,0.0484 0.0128,0.0125 0.0305,0.0202 0.0502,0.0202 0.0197,0 0.0376,-0.008 0.0504,-0.02 l 1.7e-4,-1.9e-4 c 0.0125,-0.0123 0.0204,-0.0295 0.0204,-0.0484 0,-0.019 -0.008,-0.0362 -0.0207,-0.0484 z m 13.26875,-4.1514 0.258,0.58339 0.71646,0.31434 c 0.0175,0.0421 0.0344,0.0848 0.0512,0.12912 l -0.82738,-0.36303 -0.0255,-0.025 -0.27497,-0.62201 z m 1.20048,1.72093 -1.52095,-0.67957 -0.0192,-0.009 -0.007,-0.0192 -0.33892,-0.90018 0.10109,-0.0167 0.32563,0.86477 1.44029,0.64365 c 0.007,0.0391 0.0135,0.0778 0.0192,0.11585 z m -2.38645,-1.5249 0.43385,1.09497 1.97203,0.95527 c -0.004,0.0342 -0.009,0.0679 -0.016,0.10108 l -2.01925,-0.97813 -0.0246,-0.026 -0.44762,-1.13039 z m 0.45944,3.31885 -1.139,-0.57503 -0.0457,-0.0232 0.0251,-0.0436 0.37926,-0.65742 0.0234,-0.0409 0.0433,0.0209 1.84635,0.88911 -0.0162,0.0315 -0.0826,0.0292 -1.74944,-0.84238 -0.33081,0.57356 1.17343,0.59249 z m 1.6995,-0.68153 -2.25338,-1.08316 -0.0251,-0.0275 -0.52314,-1.42037 0.10109,-0.0167 0.51034,1.38619 2.2502,1.08169 c -0.0185,0.0268 -0.0384,0.0533 -0.0601,0.0799 z m -5.5651,-2.02147 -0.67883,1.3852 0.22185,1.00004 1.40143,0.63283 1.49341,-0.4978 0.0376,9.9e-4 0.84361,0.37606 -0.1333,0.0475 -0.73441,-0.32712 -1.4934,0.4978 -0.0379,-0.002 -1.44275,-0.65152 -0.0229,-0.0103 -0.005,-0.0237 -0.23045,-1.03938 0.004,-0.0307 0.65398,-1.33478 z m 1.99711,2.09231 0.63676,-1.23565 -0.35908,-1.01898 -0.36622,-0.19922 0.15322,-0.0283 0.27941,0.15249 0.0232,0.0265 0.37187,1.05538 0.007,0.019 -0.009,0.0182 -0.65545,1.27181 -0.009,0.0182 -0.0199,0.006 -1.0748,0.34655 -0.0376,-0.002 -0.86501,-0.39894 -0.0251,-0.0256 -0.24251,-0.57799 -0.009,-0.0206 0.0108,-0.02 0.87436,-1.61023 0.12691,-0.0244 -0.90116,1.65967 0.22652,0.53962 0.82885,0.3822 z m -0.34581,-0.42746 0.40066,-0.77745 -0.1552,-0.67833 -0.40237,-0.17709 -0.31113,0.088 -0.66947,1.23344 0.0861,0.27546 0.47961,0.24226 z m 0.49904,-0.74966 -0.41738,0.80967 -0.0275,0.0242 -0.61169,0.22061 -0.0212,0.008 -0.0199,-0.0101 -0.51846,-0.26169 -0.0189,-0.01 -0.006,-0.0197 -0.0981,-0.31359 0.004,-0.0362 0.6894,-1.2696 0.01,-0.0185 0.0207,-0.006 0.34925,-0.0991 0.0352,0.003 0.4427,0.1948 0.0231,0.0103 0.005,0.0234 0.16429,0.71841 z m -4.87916,-0.36744 0.88469,0.42105 0.34973,-0.67365 0.12569,-0.0254 -0.40779,0.78557 -0.0227,0.0433 -0.045,-0.0214 -1.04307,-0.49658 z m 1.69976,3.82378 0.36918,-0.79442 0.0222,-0.0477 0.0477,0.0249 0.78998,0.41122 -0.12961,0.0431 -0.66037,-0.34383 -0.30867,0.6643 z m -8.42575,1.46291 0.53125,-1.02316 0.0507,-0.0974 0.0414,0.10158 0.43754,1.07136 c -0.0354,-1.9e-4 -0.0716,-1.9e-4 -0.10846,0 l -0.3815,-0.93461 -0.46731,0.89944 c -0.028,-0.003 -0.0566,-0.006 -0.0851,-0.008 z m -0.46657,-0.0517 1.07357,-2.0554 0.0497,-0.095 0.0421,0.0983 0.92329,2.15551 -0.0305,0.0117 -0.0745,-0.002 -0.86944,-2.03008 -1.00864,1.9312 c -0.0352,-0.005 -0.0701,-0.01 -0.10551,-0.0145 z m 2.36874,-3.96618 -0.81507,1.48234 0.93608,2.2438 0.68891,0.33179 c -0.0664,0.006 -0.1306,0.0113 -0.19282,0.0155 l -0.55831,-0.26883 -0.0244,-0.0254 -0.95183,-2.28167 -0.009,-0.0209 0.0108,-0.0199 0.76736,-1.39527 c 0.0477,-0.0205 0.0967,-0.0409 0.14806,-0.0615 z m 5.72302,2.81441 0.46632,-0.87928 -0.58635,-2.10459 -1.88152,-0.86501 c 0.0526,-0.0115 0.10577,-0.0232 0.15963,-0.0346 l 1.78633,0.82146 0.0209,0.01 0.006,0.0214 0.59741,2.1442 -0.004,0.0347 -0.42869,0.80819 z m -4.03408,-3.3651 -1.06619,0.41296 -0.81581,1.51037 0.78901,1.92652 1.15817,0.62005 c -0.0526,0.0101 -0.10404,0.0197 -0.15421,0.0285 l -1.06889,-0.57208 -0.0227,-0.0249 -0.80401,-1.96342 -0.008,-0.0206 0.0105,-0.0195 0.83524,-1.54604 0.005,-0.004 c 0.31777,-0.10896 0.69161,-0.22407 1.14195,-0.34753 z m 3.28934,3.6017 0.65202,-1.16826 -0.46362,-1.69165 -2.19535,-1.05881 c 0.0502,-0.0113 0.10108,-0.0229 0.15298,-0.0347 l 2.10779,1.01651 0.0207,0.01 0.006,0.0212 0.47469,1.73149 -0.004,0.0354 -0.61142,1.09546 z m -2.22265,-3.43347 -1.65475,0.65768 -0.63282,1.29665 0.57945,1.4297 1.52169,0.73859 0.009,-7e-4 c -0.0536,0.013 -0.106,0.0254 -0.15765,0.0374 l -1.43585,-0.69702 -0.0241,-0.0256 -0.59422,-1.46636 -0.008,-0.0192 0.009,-0.019 0.65029,-1.3328 0.0264,-0.0244 1.69435,-0.67342 0.0212,-0.008 0.0207,0.01 1.95235,0.94543 0.0202,0.01 0.006,0.0216 0.36326,1.3542 -0.004,0.0352 -0.76466,1.35838 c -0.0469,0.0145 -0.0932,0.0285 -0.13872,0.0424 l 0.805,-1.4302 -0.3522,-1.31435 z m -0.01,0.63161 -1.15818,0.46041 -0.49337,0.89698 0.43041,1.03176 1.12817,0.54331 1.04111,-0.0795 0.66161,-1.20319 -0.24645,-1.00224 z m -1.21351,0.37729 1.19629,-0.47543 0.0209,-0.008 0.0207,0.01 1.40487,0.6675 0.0217,0.0101 0.005,0.0224 0.25628,1.04233 -0.005,0.0334 -0.68349,1.24328 -0.013,0.0239 -0.0275,0.002 -1.08243,0.0824 -0.0263,-0.006 -1.15842,-0.55757 -0.0244,-0.0254 -0.44616,-1.06963 -0.009,-0.0209 0.0108,-0.0197 0.51257,-0.93264 z m 1.20564,0.12961 -0.75875,0.30153 -0.32196,0.58561 0.28137,0.67464 0.74129,0.35688 0.67957,-0.0517 0.43336,-0.78826 -0.16086,-0.65398 z m -0.8141,0.2184 0.79664,-0.31653 0.0212,-0.009 0.0204,0.01 0.93585,0.44443 0.0214,0.0103 0.006,0.0224 0.1707,0.69407 -0.005,0.0337 -0.45526,0.82787 -0.013,0.0239 -0.0276,0.002 -0.72088,0.0549 -0.0265,-0.005 -0.77131,-0.37138 -0.0246,-0.0254 -0.2971,-0.71253 -0.009,-0.0209 0.0108,-0.0197 0.34138,-0.62102 z m -4.69936,2.89804 1.63802,-3.29918 c 0.0524,-0.0315 0.10479,-0.0627 0.15865,-0.0942 l -1.70566,3.43518 z m -1.39109,-0.29245 0.0661,-0.13355 -0.26784,0.13896 -0.0103,-0.002 -0.0446,-0.0797 0.41099,-0.21323 0.0696,0.0637 -0.13281,0.26783 z m 0.41738,0.13651 0.45255,-0.9806 -1.42061,0.53075 c 0.0639,-0.0575 0.12961,-0.11681 0.19651,-0.17757 l 1.30156,-0.48624 0.0642,0.0649 -0.49362,1.06938 c -0.0334,-0.007 -0.0671,-0.0138 -0.10059,-0.0207 z m 1.99858,-2.77334 -1.44987,2.88229 c -0.0342,-0.006 -0.0684,-0.013 -0.10232,-0.0195 l 1.39577,-2.77456 c 0.007,-0.004 0.0133,-0.008 0.0199,-0.0113 0.0469,-0.0258 0.0923,-0.0516 0.1365,-0.077"
       inkscape:connector-curvature="0"
       inkscape:label="Rocket Circuitry" /><path
       id="path40944-1"
       style="display:inline;fill:#000000;fill-opacity:1;fill-rule:nonzero;stroke:none;stroke-width:0.024595"
       d="m 77.934661,269.86104 3.674,1.13678 -0.472962,1.17466 -1.233931,-0.38172 -1.440037,3.5771 -1.206631,-0.37336 1.440283,-3.57709 -1.233929,-0.38196 z m 3.989061,1.14613 1.243769,0.26513 -0.489686,1.70566 1.361823,0.29072 0.489442,-1.70591 1.249425,0.26661 -1.401915,4.88481 -1.249424,-0.26661 0.567897,-1.97842 -1.361824,-0.29046 -0.567899,1.97841 -1.243768,-0.26537 z m 4.046613,0.86009 3.381074,0.51108 -0.224059,1.05758 -2.113202,-0.31949 -0.167001,0.78803 1.958991,0.29612 -0.21373,1.00938 -1.95899,-0.29613 -0.206598,0.9747 2.176164,0.32884 -0.237095,1.11981 -3.444037,-0.52068 z m 5.022299,5.74121 0.555354,-5.00312 2.133616,0.14511 c 0.395242,0.0268 0.693578,0.0883 0.892797,0.18496 0.200203,0.096 0.3522,0.25996 0.455992,0.48993 0.103544,0.23119 0.136994,0.50665 0.101577,0.8259 -0.03074,0.27718 -0.106496,0.51378 -0.227257,0.70858 -0.120024,0.19602 -0.273005,0.34974 -0.45968,0.46387 -0.11781,0.0718 -0.275465,0.12789 -0.471486,0.16748 0.145601,0.0721 0.249884,0.13994 0.312355,0.2066 0.04181,0.0437 0.100594,0.13699 0.175363,0.27694 0.07379,0.13994 0.122236,0.24767 0.143881,0.32318 l 0.461647,1.48751 -1.446677,-0.0983 -0.514527,-1.57212 c -0.06493,-0.20389 -0.127894,-0.33719 -0.188643,-0.40114 -0.08411,-0.0834 -0.184955,-0.12888 -0.301781,-0.13675 l -0.112891,-0.008 -0.224799,2.02638 z m 1.614415,-2.8823 0.541089,0.0367 c 0.0578,0.004 0.174133,-0.0115 0.347035,-0.0455 0.08706,-0.0143 0.162574,-0.0616 0.225043,-0.14339 0.06321,-0.0811 0.101087,-0.17585 0.113139,-0.28554 0.01795,-0.16184 -0.01057,-0.28924 -0.08584,-0.38123 -0.07526,-0.0932 -0.229472,-0.14708 -0.463861,-0.16307 l -0.563226,-0.0384 z m 2.67987,0.66628 c 0.02017,-0.81876 0.224798,-1.45701 0.61512,-1.91348 0.390077,-0.45771 0.922805,-0.68695 1.599413,-0.68867 0.692841,-0.002 1.221386,0.22063 1.585394,0.66678 0.364005,0.44763 0.535679,1.07529 0.515756,1.88226 -0.01426,0.58633 -0.107726,1.06643 -0.280629,1.44174 -0.173148,0.37532 -0.417624,0.66801 -0.731948,0.87806 -0.315307,0.20979 -0.703661,0.3148 -1.166047,0.31628 -0.469027,0.001 -0.855414,-0.0876 -1.159162,-0.26661 -0.302764,-0.18004 -0.545764,-0.46436 -0.727028,-0.85369 -0.181265,-0.3886 -0.26538,-0.87656 -0.250869,-1.46267 z m 1.284842,-1.8e-4 c -0.01231,0.50592 0.0573,0.86992 0.207829,1.09005 0.151504,0.22037 0.362036,0.3308 0.631599,0.33007 0.275956,-7e-4 0.493866,-0.10995 0.650536,-0.32663 0.157409,-0.21741 0.242507,-0.60553 0.256281,-1.16727 0.0118,-0.47173 -0.05927,-0.81607 -0.21201,-1.03275 -0.153473,-0.21816 -0.364988,-0.32612 -0.636272,-0.32539 -0.259723,7e-4 -0.471732,0.1124 -0.634305,0.33351 -0.16331,0.22111 -0.25087,0.58807 -0.263658,1.09841 z m 6.219819,0.30646 1.14614,0.34088 c -0.0581,0.38442 -0.16257,0.70982 -0.31458,0.97372 -0.15101,0.26513 -0.34384,0.46951 -0.57995,0.6134 -0.23537,0.14387 -0.53936,0.22774 -0.91223,0.25013 -0.45328,0.0275 -0.82589,-0.0293 -1.12079,-0.16922 -0.29391,-0.14117 -0.55363,-0.40483 -0.78015,-0.7895 -0.22652,-0.3849 -0.354416,-0.88886 -0.382943,-1.5089 -0.03788,-0.82737 0.116088,-1.47471 0.461893,-1.94178 0.34655,-0.46631 0.85468,-0.72013 1.52489,-0.76047 0.52387,-0.0317 0.94248,0.0703 1.25434,0.30744 0.31113,0.23709 0.55265,0.61512 0.72211,1.1353 l -1.11931,0.37016 c -0.0467,-0.14905 -0.0935,-0.25727 -0.14019,-0.32441 -0.078,-0.11338 -0.17045,-0.19897 -0.27694,-0.25579 -0.10749,-0.0575 -0.22505,-0.0819 -0.35392,-0.0743 -0.29245,0.0177 -0.50987,0.17241 -0.65178,0.46263 -0.10772,0.21547 -0.15174,0.54774 -0.13133,0.99413 0.0256,0.55437 0.1124,0.92896 0.26242,1.12671 0.14979,0.19676 0.35122,0.28726 0.60504,0.27202 0.24595,-0.015 0.4282,-0.10896 0.54626,-0.2831 0.11829,-0.17315 0.19848,-0.41983 0.24102,-0.73907 z m 1.0994,-2.95805 1.27969,-0.13921 0.19774,1.88202 1.14465,-2.02786 1.70345,-0.1852 -1.31658,2.03573 1.9098,2.93762 -1.57604,0.17143 -1.08932,-1.95014 -0.57748,0.90485 0.1274,1.21278 -1.27968,0.13921 z m 4.62755,-0.46337 3.37542,-0.69309 0.23414,1.04505 -2.10926,0.43336 0.17437,0.77893 1.95555,-0.40189 0.22358,0.99758 -1.95555,0.40163 0.21594,0.96315 2.17223,-0.44616 0.24816,1.10677 -3.43813,0.70613 z m 3.60021,-0.69923 3.80091,-0.93288 0.32762,1.19653 -1.27648,0.31311 0.99683,3.64374 -1.2482,0.30621 -0.99684,-3.6435 -1.27648,0.31333 z m 3.96325,-1.00544 3.27753,-1.0298 0.36326,1.01184 -2.04851,0.64365 0.27054,0.75408 1.89897,-0.59691 0.34679,0.9656 -1.89922,0.59667 0.33474,0.9324 2.1095,-0.66284 0.38442,1.07136 -3.33851,1.04922 z m 3.55912,-1.16703 3.17521,-1.27772 0.4582,0.97766 -1.98431,0.79859 0.34138,0.72851 1.83969,-0.74006 0.43753,0.93288 -1.83992,0.74032 0.42254,0.90115 2.04357,-0.82246 0.48526,1.03545 -3.23422,1.30133 z m 6.04936,3.02395 -2.68158,-4.32847 1.87684,-0.9811 c 0.34777,-0.18176 0.63601,-0.28579 0.86376,-0.31014 0.22776,-0.0256 0.45796,0.0288 0.6894,0.16109 0.23218,0.13356 0.43361,0.33893 0.60455,0.61512 0.1488,0.23981 0.23389,0.47002 0.25553,0.6894 0.0229,0.22013 -0.009,0.42328 -0.093,0.61168 -0.0536,0.11855 -0.15026,0.24522 -0.28923,0.37778 0.167,-0.0167 0.2971,-0.0152 0.39131,0.006 0.0624,0.014 0.17019,0.0593 0.32096,0.13379 0.14977,0.075 0.258,0.13724 0.32367,0.18693 l 1.32172,0.96437 -1.27254,0.66529 -1.41937,-1.00544 c -0.18249,-0.13159 -0.31899,-0.20685 -0.41024,-0.22727 -0.12273,-0.0239 -0.23586,-0.009 -0.33842,0.0451 l -0.0993,0.0519 1.08611,1.75313 z m -0.46165,-3.15997 0.47616,-0.2489 c 0.0509,-0.0265 0.13847,-0.0991 0.2617,-0.21545 0.0642,-0.0563 0.0971,-0.13355 0.0981,-0.23144 0.002,-0.0983 -0.026,-0.19454 -0.0846,-0.28899 -0.0868,-0.14019 -0.1911,-0.22849 -0.31186,-0.26414 -0.12151,-0.0364 -0.28457,-5.6e-4 -0.49067,0.10722 l -0.49559,0.25899 z m 3.11617,-0.12986 0.92354,-0.7499 c 0.17709,0.17364 0.34015,0.28777 0.48673,0.3404 0.23932,0.0861 0.45821,0.0617 0.65668,-0.0748 0.14758,-0.10158 0.22776,-0.22063 0.23957,-0.35762 0.0122,-0.13748 -0.0266,-0.25996 -0.11609,-0.36794 -0.0848,-0.10256 -0.19874,-0.16896 -0.34187,-0.19824 -0.14314,-0.029 -0.38221,0.0167 -0.7199,0.13455 -0.55388,0.19282 -1.01036,0.25455 -1.36993,0.18741 -0.36032,-0.0649 -0.66923,-0.25259 -0.926,-0.56273 -0.16823,-0.20292 -0.27719,-0.42943 -0.32711,-0.67908 -0.0507,-0.25062 -0.0185,-0.49607 0.0966,-0.73735 0.11511,-0.24153 0.34704,-0.4823 0.69629,-0.72236 0.42869,-0.29513 0.83302,-0.42549 1.21474,-0.39106 0.38097,0.0337 0.76292,0.24153 1.1471,0.62374 l -0.91812,0.73882 c -0.17488,-0.16207 -0.33818,-0.25579 -0.48821,-0.27988 -0.15176,-0.0249 -0.30005,0.0138 -0.44615,0.11412 -0.12028,0.0828 -0.18644,0.17609 -0.19774,0.27792 -0.0111,0.10207 0.0197,0.19676 0.0915,0.28358 0.0519,0.0627 0.12347,0.10183 0.21496,0.11879 0.0913,0.02 0.24644,-0.0115 0.46658,-0.0922 0.5487,-0.19628 0.97001,-0.30203 1.26293,-0.31802 0.29392,-0.0167 0.55782,0.0307 0.79197,0.14486 0.23365,0.11314 0.44024,0.27818 0.62004,0.4951 0.21028,0.25382 0.34506,0.52904 0.40457,0.8259 0.0578,0.29637 0.0275,0.57356 -0.0947,0.83156 -0.1215,0.25751 -0.34432,0.4978 -0.66923,0.72112 -0.57011,0.3923 -1.07308,0.53396 -1.50742,0.42575 -0.43434,-0.10848 -0.83156,-0.35245 -1.19138,-0.73245"
       inkscape:connector-curvature="0"
       inkscape:label="The Rocketeers" /><path
       id="path40946-63"
       style="display:inline;fill:#000000;fill-opacity:1;fill-rule:nonzero;stroke:none;stroke-width:0.024595"
       d="m 66.555714,235.92781 4.244923,-2.33652 0.753223,1.34289 -1.441489,0.77721 2.253049,4.07784 -1.396061,0.75261 -2.248818,-4.05818 -1.411703,0.78704 z m 16.69417,-6.62097 2.075571,-0.36891 1.449138,3.58594 0.122482,-3.86387 2.061306,-0.36647 1.077752,6.0848 -1.278939,0.22628 -0.830818,-4.69273 -0.146341,4.86243 -1.175641,0.20906 -1.802319,-4.45169 0.812863,4.63123 -1.28017,0.2189 z m -1.533497,5.72081 -1.725093,0.52878 0.03911,1.04037 -1.542107,0.45501 0.07108,-6.45619 1.66754,-0.50419 3.628254,5.35924 -1.596708,0.48206 z m -0.702433,-1.18548 -1.183265,-1.96761 0.106742,2.2898 z m -9.421554,-0.64932 3.941052,-1.62819 0.501492,1.21992 -2.458418,1.01823 0.379895,0.91248 2.271593,-0.94199 0.479848,1.15841 -2.282168,0.94692 0.475667,1.12398 2.512378,-1.04036 0.542565,1.28878 -4.005787,1.64786 -2.358117,-5.70604"
       inkscape:connector-curvature="0"
       inkscape:label="Team" /></g></svg>
