<svg version="1.1" viewBox="0.0 0.0 288.0 720.0" fill="none" stroke="none" stroke-linecap="square" stroke-miterlimit="10" xmlns:xlink="http://www.w3.org/1999/xlink" xmlns="http://www.w3.org/2000/svg"><clipPath id="p.0"><path d="m0 0l288.0 0l0 720.0l-288.0 0l0 -720.0z" clip-rule="nonzero"/></clipPath><g clip-path="url(#p.0)"><path fill="#000000" fill-opacity="0.0" d="m0 0l288.0 0l0 720.0l-288.0 0z" fill-rule="evenodd"/><path fill="#000000" fill-opacity="0.0" d="m56.484188 530.9134l0 0c0 -8.300354 6.7287903 -15.029175 15.029171 -15.029175l60.11489 0l0 0c3.9859772 0 7.8087006 1.583435 10.627228 4.4019775c2.818512 2.8184814 4.401932 6.6412354 4.401932 10.627197l0 64.30383c0 8.300415 -6.7287903 15.029175 -15.02916 15.029175l-60.11489 0l0 0c-8.300381 0 -15.029171 -6.72876 -15.029171 -15.029175z" fill-rule="evenodd"/><path stroke="#ffffff" stroke-width="12.0" stroke-linejoin="round" stroke-linecap="butt" d="m56.484188 530.9134l0 0c0 -8.300354 6.7287903 -15.029175 15.029171 -15.029175l60.11489 0l0 0c3.9859772 0 7.8087006 1.583435 10.627228 4.4019775c2.818512 2.8184814 4.401932 6.6412354 4.401932 10.627197l0 64.30383c0 8.300415 -6.7287903 15.029175 -15.02916 15.029175l-60.11489 0l0 0c-8.300381 0 -15.029171 -6.72876 -15.029171 -15.029175z" fill-rule="evenodd"/><path fill="#000000" fill-opacity="0.0" d="m56.484188 530.9134l0 0c0 -8.300354 6.7287903 -15.029175 15.029171 -15.029175l60.11489 0l0 0c3.9859772 0 7.8087006 1.583435 10.627228 4.4019775c2.818512 2.8184814 4.401932 6.6412354 4.401932 10.627197l0 64.30383c0 8.300415 -6.7287903 15.029175 -15.02916 15.029175l-60.11489 0l0 0c-8.300381 0 -15.029171 -6.72876 -15.029171 -15.029175z" fill-rule="evenodd"/><path stroke="#ff0000" stroke-width="4.0" stroke-linejoin="round" stroke-linecap="butt" stroke-dasharray="16.0,12.0" d="m56.484188 530.9134l0 0c0 -8.300354 6.7287903 -15.029175 15.029171 -15.029175l60.11489 0l0 0c3.9859772 0 7.8087006 1.583435 10.627228 4.4019775c2.818512 2.8184814 4.401932 6.6412354 4.401932 10.627197l0 64.30383c0 8.300415 -6.7287903 15.029175 -15.02916 15.029175l-60.11489 0l0 0c-8.300381 0 -15.029171 -6.72876 -15.029171 -15.029175z" fill-rule="evenodd"/></g></svg>