<?xml version="1.0" encoding="UTF-8" standalone="no"?>
<!-- Created with Inkscape (http://www.inkscape.org/) -->

<svg
   width="297mm"
   height="210mm"
   viewBox="0 0 297 210"
   version="1.1"
   id="svg1"
   inkscape:version="1.4 (86a8ad7, 2024-10-11)"
   sodipodi:docname="sea.svg"
   inkscape:export-filename="sea.png"
   inkscape:export-xdpi="96"
   inkscape:export-ydpi="96"
   xmlns:inkscape="http://www.inkscape.org/namespaces/inkscape"
   xmlns:sodipodi="http://sodipodi.sourceforge.net/DTD/sodipodi-0.dtd"
   xmlns="http://www.w3.org/2000/svg"
   xmlns:svg="http://www.w3.org/2000/svg">
  <sodipodi:namedview
     id="namedview1"
     pagecolor="#ffffff"
     bordercolor="#000000"
     borderopacity="0.25"
     inkscape:showpageshadow="2"
     inkscape:pageopacity="0.0"
     inkscape:pagecheckerboard="0"
     inkscape:deskcolor="#d1d1d1"
     inkscape:document-units="mm"
     inkscape:zoom="0.53606888"
     inkscape:cx="766.69252"
     inkscape:cy="573.62031"
     inkscape:window-width="1157"
     inkscape:window-height="1101"
     inkscape:window-x="753"
     inkscape:window-y="0"
     inkscape:window-maximized="0"
     inkscape:current-layer="svg1" />
  <defs
     id="defs1">
    <inkscape:path-effect
       effect="bspline"
       id="path-effect13"
       is_visible="true"
       lpeversion="1.3"
       weight="33.333333"
       steps="2"
       helper_size="0"
       apply_no_weight="true"
       apply_with_weight="true"
       only_selected="false"
       uniform="false" />
    <inkscape:path-effect
       effect="bspline"
       id="path-effect12"
       is_visible="true"
       lpeversion="1.3"
       weight="33.333333"
       steps="2"
       helper_size="0"
       apply_no_weight="true"
       apply_with_weight="true"
       only_selected="false"
       uniform="false" />
    <inkscape:path-effect
       effect="bspline"
       id="path-effect11"
       is_visible="true"
       lpeversion="1.3"
       weight="33.333333"
       steps="2"
       helper_size="0"
       apply_no_weight="true"
       apply_with_weight="true"
       only_selected="false"
       uniform="false" />
    <inkscape:path-effect
       effect="bspline"
       id="path-effect10"
       is_visible="true"
       lpeversion="1.3"
       weight="33.333333"
       steps="2"
       helper_size="0"
       apply_no_weight="true"
       apply_with_weight="true"
       only_selected="false"
       uniform="false" />
    <inkscape:path-effect
       effect="bspline"
       id="path-effect9"
       is_visible="true"
       lpeversion="1.3"
       weight="33.333333"
       steps="2"
       helper_size="0"
       apply_no_weight="true"
       apply_with_weight="true"
       only_selected="false"
       uniform="false" />
    <inkscape:path-effect
       effect="bspline"
       id="path-effect8"
       is_visible="true"
       lpeversion="1.3"
       weight="33.333333"
       steps="2"
       helper_size="0"
       apply_no_weight="true"
       apply_with_weight="true"
       only_selected="false"
       uniform="false" />
    <inkscape:path-effect
       effect="bspline"
       id="path-effect7"
       is_visible="true"
       lpeversion="1.3"
       weight="33.333333"
       steps="2"
       helper_size="0"
       apply_no_weight="true"
       apply_with_weight="true"
       only_selected="false"
       uniform="false" />
    <inkscape:path-effect
       effect="bspline"
       id="path-effect5"
       is_visible="true"
       lpeversion="1.3"
       weight="33.333333"
       steps="2"
       helper_size="0"
       apply_no_weight="true"
       apply_with_weight="true"
       only_selected="false"
       uniform="false" />
    <inkscape:path-effect
       effect="bspline"
       id="path-effect4"
       is_visible="true"
       lpeversion="1.3"
       weight="33.333333"
       steps="2"
       helper_size="0"
       apply_no_weight="true"
       apply_with_weight="true"
       only_selected="false"
       uniform="false" />
    <inkscape:path-effect
       effect="bspline"
       id="path-effect3"
       is_visible="true"
       lpeversion="1.3"
       weight="33.333333"
       steps="2"
       helper_size="0"
       apply_no_weight="true"
       apply_with_weight="true"
       only_selected="false"
       uniform="false" />
    <inkscape:path-effect
       effect="bspline"
       id="path-effect2"
       is_visible="true"
       lpeversion="1.3"
       weight="33.333333"
       steps="2"
       helper_size="0"
       apply_no_weight="true"
       apply_with_weight="true"
       only_selected="false"
       uniform="false" />
    <inkscape:path-effect
       effect="bspline"
       id="path-effect1"
       is_visible="true"
       lpeversion="1.3"
       weight="33.333333"
       steps="2"
       helper_size="0"
       apply_no_weight="true"
       apply_with_weight="true"
       only_selected="false"
       uniform="false" />
  </defs>
  <rect
     style="fill:#2c5aa0;stroke-width:0.230375"
     id="rect2"
     width="310.05936"
     height="222.59013"
     x="-6.0485225"
     y="-6.7259789" />
  <g
     inkscape:label="Layer 1"
     inkscape:groupmode="layer"
     id="layer1">
    <path
       style="fill:#ffccaa;stroke-width:0.264583"
       d="m -34.900118,196.13866 c 17.682727,-13.26205 35.36509491,-26.52382 55.258563,-26.29115 19.893468,0.23267 41.995989,13.9595 72.941377,11.98178 30.945388,-1.97771 70.729938,-19.65973 113.308928,-19.19439 42.57899,0.46535 87.94824,19.07837 133.31839,37.69177 z"
       id="path2"
       inkscape:path-effect="#path-effect2"
       inkscape:original-d="m -34.900118,196.13866 c 0,0 35.3650983,-26.52382 53.04818,-39.78614 22.103849,13.72766 44.20637,27.45449 66.310218,41.18214 39.78693,-17.68308 79.57148,-35.3651 119.3584,-53.04818 45.37106,18.61376 136.11046,55.84019 136.11046,55.84019 z"
       sodipodi:nodetypes="cccccc" />
    <path
       style="fill:#ffe6d5;stroke-width:0.264583"
       d="m -52.350176,219.87074 c 24.197414,-18.14806 48.3943454,-36.29576 75.965989,-41.64722 27.571645,-5.35145 58.515795,2.09375 85.272777,3.02437 26.75698,0.93061 49.32527,-4.6533 70.61455,-3.83889 21.28927,0.81441 41.29827,8.02696 60.84252,6.16551 19.54426,-1.86145 38.62262,-12.7966 54.6768,-8.14305 16.05418,4.65355 29.0833,24.89521 42.11267,45.13728 z"
       id="path1"
       inkscape:path-effect="#path-effect1"
       inkscape:original-d="m -52.350176,219.87074 c 0,0 48.3943435,-36.29576 72.592243,-54.44418 30.945392,7.4455 61.889542,14.89071 92.834313,22.33607 22.56919,-5.58413 45.13748,-11.16804 67.70623,-16.75206 20.0098,7.21284 40.0188,14.42538 60.0282,21.63808 19.07911,-10.93559 38.15747,-21.87074 57.2362,-32.80611 13.02963,20.24247 39.08812,60.7262 39.08812,60.7262 z"
       sodipodi:nodetypes="cccccccc" />
  </g>
  <path
     style="fill:#00aa44;stroke-width:0.264583"
     d="m 36.761457,184.03995 c -1.628674,2.32667 -8.376027,-3.25734 -10.470009,-9.77211 -2.093982,-6.51476 0.465308,-13.95997 -0.232734,-20.47471 -0.698042,-6.51475 -4.653307,-12.09865 -4.769603,-17.79906 -0.116296,-5.70042 3.606304,-11.51698 4.071613,-16.17037 0.465308,-4.65338 -2.326649,-8.14333 -1.163259,-10.12101 1.163389,-1.97767 6.281971,-2.443 8.259633,0.34907 1.977661,2.79207 0.814348,8.8413 2.326727,14.65805 1.512379,5.81674 5.700311,11.40065 5.583934,17.45007 -0.116377,6.04941 -4.536971,12.56397 -5.002272,20.9401 -0.465301,8.37613 3.024644,18.6133 1.39597,20.93997 z"
     id="path3"
     inkscape:path-effect="#path-effect3"
     inkscape:original-d="m 41.880141,191.95064 c -6.747356,-5.58402 -13.494713,-11.16803 -20.242068,-16.75205 2.559393,-7.44551 5.118684,-14.89072 7.678025,-22.33608 -3.955425,-5.58413 -7.910693,-11.16803 -11.866039,-16.75205 3.722753,-5.81681 7.445358,-11.63337 11.168036,-17.45006 -2.792064,-3.49008 -5.584018,-6.98003 -8.376027,-10.47004 5.118786,-0.46534 10.237368,-0.93067 15.35605,-1.396 -1.16336,6.04947 -2.326674,12.0987 -3.49001,18.14806 4.188097,5.58413 8.376028,11.16804 12.564041,16.75206 -4.42077,6.51481 -8.841362,13.02937 -13.262044,19.54406 3.490082,10.23757 6.980023,20.47474 10.470036,30.7121 z" />
  <path
     style="fill:#00d455;stroke-width:0.264583"
     d="m 38.041128,179.27027 c -0.116332,-3.60635 3.606343,-8.72503 3.257298,-12.44774 -0.349044,-3.7227 -4.769633,-6.04932 -4.653256,-8.02701 0.116378,-1.97769 4.769635,-3.60633 5.00226,-5.70036 0.232624,-2.09404 -3.955305,-4.65333 -3.489919,-7.09636 0.465386,-2.44303 5.583968,-4.76966 5.932926,-7.67804 0.348957,-2.90838 -4.071637,-6.39832 -4.187928,-9.77203 -0.116291,-3.37371 4.071639,-6.63099 4.187932,-9.53936 0.116292,-2.90837 -3.838974,-5.46766 -3.838935,-7.56168 3.9e-5,-2.09402 3.95531,-3.72266 3.373589,-6.98005 -0.581721,-3.2574 -5.7003,-8.143316 -5.234906,-9.073956 0.465394,-0.930641 6.514628,2.093977 10.819002,0.930587 4.304374,-1.163391 6.863665,-6.514636 7.677991,-5.002213 0.814327,1.512422 -0.116325,9.888282 1.047046,16.286682 1.16337,6.3984 4.420648,10.81899 4.071607,14.65803 -0.349041,3.83905 -4.30431,7.09633 -5.351294,11.98241 -1.046984,4.88608 0.814318,11.40064 -0.34906,13.26195 -1.163378,1.86132 -5.351309,-0.93064 -5.58394,0.93077 -0.232631,1.8614 3.489975,8.37596 3.722611,13.49468 0.232636,5.11872 -3.024646,8.84133 -5.002326,12.79672 -1.977679,3.95538 -2.675668,8.14331 -5.002383,9.1903 -2.326715,1.04698 -6.281984,-1.04698 -6.398315,-4.65333 z"
     id="path4"
     inkscape:path-effect="#path-effect4"
     inkscape:original-d="m 34.202116,180.78261 c 3.722679,-5.11869 7.445356,-10.23737 11.168035,-15.35606 -4.420769,-2.32672 -8.841361,-4.65334 -13.262043,-6.98002 4.653441,-1.6287 9.306697,-3.25734 13.960046,-4.88601 -4.188097,-2.5594 -8.376028,-5.11869 -12.564041,-7.67803 5.118785,-2.32672 10.237367,-4.65335 15.356051,-6.98003 -4.420769,-3.49008 -8.841364,-6.98002 -13.262046,-10.47003 4.1881,-3.25741 8.376028,-6.51469 12.564044,-9.77203 -3.955426,-2.5594 -7.910693,-5.11869 -11.866041,-7.67803 3.955425,-1.6287 7.910695,-3.25734 11.866041,-4.88601 -5.118785,-4.88612 -10.237367,-9.772036 -15.356052,-14.658054 6.049473,3.024737 12.098708,6.049353 18.148062,9.074034 2.559391,-5.351461 5.118682,-10.702706 7.678026,-16.054058 -0.930691,8.376198 -1.861341,16.752058 -2.792011,25.128088 3.25741,4.42077 6.514688,8.84136 9.772034,13.26204 -3.955426,3.25741 -7.910695,6.51469 -11.866041,9.77203 1.861378,6.51482 3.722679,13.02938 5.584018,19.54407 -4.188098,-2.79206 -8.376026,-5.58402 -12.564041,-8.37603 3.722753,6.51482 7.445359,13.02938 11.168038,19.54407 -3.25741,3.72275 -6.51469,7.44536 -9.772033,11.16804 -0.698016,4.18809 -1.396005,8.37602 -2.094008,12.56404 -3.955425,-2.09405 -7.910692,-4.18802 -11.866038,-6.28202 z" />
  <path
     style="fill:#00aa44;stroke-width:0.264583"
     d="m 47.115157,180.54994 c 2.210341,-2.55934 9.6557,-5.35135 12.215018,-9.19041 2.559318,-3.83907 0.23269,-8.72499 1.279738,-11.16799 1.047049,-2.44301 5.467641,-2.44301 6.281949,-4.65339 0.814308,-2.21039 -1.977644,-6.63098 -1.744943,-9.65567 0.232701,-3.0247 3.48998,-4.65334 1.977577,-6.5147 -1.512402,-1.86136 -7.7943,-3.95532 -7.910571,-6.39836 -0.116271,-2.44304 5.93296,-5.23499 5.9329,-7.91069 -6e-5,-2.6757 -6.049292,-5.235 -5.700224,-8.14337 0.349069,-2.90838 7.096286,-6.16566 10.818974,-4.07157 3.722688,2.09408 4.420675,9.53929 7.096398,14.42533 2.675723,4.88604 7.32898,7.21267 6.863588,8.376 -0.465392,1.16334 -6.049299,1.16334 -6.979932,4.18808 -0.930634,3.02473 2.791974,9.07397 2.908271,13.02933 0.116297,3.95537 -3.373643,5.81667 -5.933,9.1904 -2.559357,3.37372 -4.187998,8.25964 -7.910736,12.7967 -3.722739,4.53706 -9.539308,8.72499 -13.960019,9.65563 -4.420711,0.93065 -7.445329,-1.39598 -5.234988,-3.95532 z"
     id="path5"
     inkscape:path-effect="#path-effect5"
     inkscape:original-d="m 41.880141,180.78261 c 7.445357,-2.79201 14.890716,-5.58402 22.336075,-8.37603 -2.326722,-4.88612 -4.653349,-9.77204 -6.980023,-14.65805 4.420769,0 8.841361,0 13.262043,0 -2.792066,-4.42077 -5.584018,-8.84136 -8.376028,-13.26204 3.25741,-1.62871 6.51469,-3.25735 9.772033,-4.88602 -6.282147,-2.09405 -12.564043,-4.18802 -18.846064,-6.28202 6.049476,-2.79207 12.098708,-5.58402 18.148062,-8.37603 -6.049476,-2.55939 -12.098708,-5.11868 -18.148062,-7.67803 6.747492,-3.25741 13.494713,-6.51468 20.24207,-9.77203 0.698015,7.44551 1.396005,14.89072 2.094005,22.33608 4.653444,2.32672 9.3067,4.65335 13.960048,6.98002 -5.584131,0 -11.168038,0 -16.752056,0 3.722754,6.04947 7.445359,12.09871 11.168036,18.14806 -3.490082,1.86138 -6.980023,3.72268 -10.470033,5.58402 -1.628707,4.88611 -3.257347,9.77203 -4.886019,14.65805 -5.816801,4.1881 -11.633371,8.37603 -17.450056,12.56404 -3.024738,-2.32672 -6.049354,-4.65335 -9.074031,-6.98002 z" />
  <ellipse
     style="fill:#3771c8;stroke-width:0.384126"
     id="path6"
     cx="151.11751"
     cy="111.33138"
     rx="10.121034"
     ry="10.121035" />
  <ellipse
     style="fill:#3771c8;stroke-width:0.264583"
     id="path6-8"
     cx="163.45297"
     cy="96.43074"
     rx="7.3290243"
     ry="6.6310225" />
  <ellipse
     style="fill:#3771c8;stroke-width:0.178694"
     id="path6-5"
     cx="147.27316"
     cy="86.873962"
     rx="4.537015"
     ry="4.8860164" />
  <ellipse
     style="fill:#3771c8;stroke-width:0.384126"
     id="path6-1"
     cx="82.575989"
     cy="58.401619"
     rx="10.121034"
     ry="10.121035" />
  <ellipse
     style="fill:#3771c8;stroke-width:0.264583"
     id="path6-8-1"
     cx="64.199348"
     cy="44.198978"
     rx="7.3290243"
     ry="6.6310225" />
  <ellipse
     style="fill:#3771c8;stroke-width:0.178694"
     id="path6-5-5"
     cx="78.731644"
     cy="33.944199"
     rx="4.537015"
     ry="4.8860164" />
  <ellipse
     style="fill:#3771c8;stroke-width:0.384126"
     id="path6-14"
     cx="222.68362"
     cy="41.813953"
     rx="10.121034"
     ry="10.121035" />
  <ellipse
     style="fill:#3771c8;stroke-width:0.264583"
     id="path6-8-2"
     cx="225.24706"
     cy="20.631292"
     rx="7.3290243"
     ry="6.6310225" />
  <ellipse
     style="fill:#3771c8;stroke-width:0.178694"
     id="path6-5-3"
     cx="209.06725"
     cy="11.074513"
     rx="4.537015"
     ry="4.8860164" />
  <ellipse
     style="fill:#3771c8;stroke-width:0.384126"
     id="path6-6"
     cx="251.29662"
     cy="147.12611"
     rx="10.121034"
     ry="10.121035" />
  <ellipse
     style="fill:#3771c8;stroke-width:0.264583"
     id="path6-8-8"
     cx="238.504"
     cy="123.15145"
     rx="7.3290243"
     ry="6.6310225" />
  <ellipse
     style="fill:#3771c8;stroke-width:0.178694"
     id="path6-5-57"
     cx="251.64029"
     cy="109.40665"
     rx="4.537015"
     ry="4.8860164" />
  <path
     style="fill:#ff80e5;stroke-width:0.264583"
     d="m 159.84254,129.82844 c 0,0 12.56404,8.37602 12.56404,8.37602 5.58402,-6.98002 11.16803,-13.96005 18.49715,-16.2867 7.32912,-2.32665 16.40297,-2e-5 17.56624,4.07172 1.16327,4.07174 -5.58396,9.88832 -12.79672,13.14566 -7.21277,3.25735 -14.89064,3.95534 -20.4747,6.63106 -5.58405,2.67572 -9.074,7.32898 -12.56401,11.98233 0,-5.81669 0,-11.63337 -0.46534,-16.28675 -0.46534,-4.65339 -1.39599,-8.14333 -2.32666,-11.63334 z"
     id="path7"
     inkscape:path-effect="#path-effect7"
     inkscape:original-d="m 159.84254,129.82844 12.56404,8.37602 c 0,0 11.16804,-13.96004 16.75205,-20.94007 9.07422,2.32672 18.14807,4.65335 27.2221,6.98003 -6.74749,5.8168 -13.49472,11.63337 -20.24207,17.45006 -7.67818,0.69801 -15.35605,1.396 -23.03408,2.094 -3.49008,4.65344 -10.47004,13.96005 -10.47004,13.96005 0,0 0,-11.63337 0,-17.45006 -0.93068,-3.49008 -2.792,-10.47003 -2.792,-10.47003 z"
     sodipodi:nodetypes="ccccccccc" />
  <path
     style="fill:#44aa00;stroke-width:0.264583"
     d="m 136.46995,41.459224 c 0.8226,1.974248 1.64521,3.948495 3.78401,5.017882 2.1388,1.069388 5.59367,1.233906 7.19774,2.550096 1.60408,1.31619 1.3573,3.783953 -2e-5,4.2775 -1.35732,0.493547 -3.82508,-0.98711 -6.29289,-2.467796 0.32904,1.727467 0.65808,3.454935 -0.41133,2.837953 -1.06941,-0.616983 -3.53717,-3.578297 -5.92275,-5.3469 -2.38557,-1.768604 -4.68881,-2.344414 -6.9921,-2.920237 z"
     id="path9"
     inkscape:path-effect="#path-effect9"
     inkscape:original-d="m 136.46995,41.459224 c 0,0 1.6452,3.948498 2.46781,5.922745 3.455,0.164526 6.90987,0.329044 10.3648,0.493564 -0.24678,2.467859 -0.49356,4.935622 -0.74034,7.403431 -2.46786,-1.480714 -7.40343,-4.442058 -7.40343,-4.442058 0,0 0.65808,3.454935 0.98712,5.182402 -2.46786,-2.961431 -4.93562,-5.922746 -7.40343,-8.884118 -2.30334,-0.575834 -6.90987,-1.727468 -6.90987,-1.727468 z"
     sodipodi:nodetypes="ccccccccc" />
  <path
     style="fill:#44aa00;stroke-width:0.264583"
     d="m 127.38018,46.84728 c -1.60408,-0.370172 -3.90732,5.14116 -6.90989,8.637298 -3.00257,3.496138 -6.7042,4.97679 -5.10006,5.346955 1.60414,0.370165 8.51374,-0.370149 11.5163,-3.866285 3.00257,-3.496136 2.09772,-9.747795 0.49365,-10.117968 z"
     id="path10"
     inkscape:path-effect="#path-effect10"
     inkscape:original-d="m 128.07939,40.965661 c -2.30329,5.511447 -4.60654,11.022776 -6.90987,16.534335 -3.7018,1.480717 -7.40343,2.961372 -11.10515,4.44206 6.91,-0.740358 13.8196,-1.480672 20.72961,-2.221031 -0.90488,-6.251913 -1.80972,-12.503573 -2.71459,-18.755364 z"
     sodipodi:nodetypes="ccccc" />
  <path
     style="fill:#44aa00;stroke-width:0.264583"
     d="m 140.13054,40.307577 c 1.02826,-1e-6 5.717,-1.645174 5.75813,-4.524343 0.0411,-2.879169 -4.56527,-6.992026 -5.59355,-6.992027 -1.02827,0 1.5217,4.112862 1.48057,6.992029 -0.0411,2.879166 -2.67341,4.524343 -1.64515,4.524341 z"
     id="path11"
     inkscape:path-effect="#path-effect11"
     inkscape:original-d="m 136.46995,41.952787 c 4.68885,-1.64521 9.37759,-3.290383 14.06652,-4.935623 -4.60667,-4.1131 -9.21307,-8.225956 -13.81974,-12.339055 2.55012,4.113097 5.10009,8.225962 7.65021,12.339055 -2.63238,1.645237 -5.26466,3.290413 -7.89699,4.935623 z"
     sodipodi:nodetypes="ccccc" />
  <path
     style="fill:#44aa00;stroke-width:0.264583"
     d="m 101.67381,35.413087 c 0.16452,-0.945993 2.30329,-2.26216 4.60661,-2.303277 2.30331,-0.04112 4.77107,1.192763 4.60652,2.138763 -0.16454,0.946 -2.96134,1.604071 -5.26465,1.645195 -2.30331,0.04112 -4.113,-0.534688 -3.94848,-1.480681 z"
     id="path12"
     inkscape:path-effect="#path-effect12"
     inkscape:original-d="m 99.699563,35.783258 c 2.138767,-1.316165 4.277537,-2.632332 6.416307,-3.948496 2.46786,1.233929 4.93562,2.467811 7.40343,3.701716 -2.7969,0.658096 -5.5937,1.316165 -8.39055,1.974249 -1.80977,-0.575833 -3.61946,-1.151646 -5.429187,-1.727469 z" />
  <path
     style="fill:#44aa00;stroke-width:0.264583"
     d="m 109.77646,23.238552 c -0.78147,0.205653 -0.86374,2.179902 -0.16451,3.866254 0.69923,1.686351 2.17989,3.08475 2.96136,2.879079 0.78147,-0.205671 0.86373,-2.015361 0.16451,-3.701712 -0.69923,-1.68635 -2.17989,-3.249273 -2.96136,-3.043621 z"
     id="path13"
     inkscape:path-effect="#path-effect13"
     inkscape:original-d="m 109.07725,21.469955 c -0.0823,1.974248 -0.16453,3.948499 -0.24679,5.922746 1.48072,1.398455 2.96138,2.796852 4.44206,4.195278 0.0823,-1.809763 0.16452,-3.619455 0.24678,-5.429183 -1.48071,-1.562972 -2.96137,-3.125894 -4.44205,-4.688841 z"
     sodipodi:nodetypes="ccccc" />
  <path
     style="fill:#55d400;stroke-width:0.264583"
     d="m 128.65521,50.713514 c -3.5372,-0.781475 -11.18741,-4.647711 -15.71174,-9.172083 -4.52434,-4.524372 -5.92273,-9.706671 -3.94843,-12.462396 1.9743,-2.755726 7.32112,-3.08476 15.21822,-0.04106 7.89709,3.043697 18.34395,9.459878 20.64719,12.338985 2.30323,2.879107 -3.53714,2.221038 -7.19774,2.550093 -3.66061,0.329055 -5.14126,1.645192 -5.59369,3.454944 -0.45242,1.809753 0.12339,4.112996 -3.41381,3.331521 z"
     id="path8"
     inkscape:path-effect="#path-effect8"
     inkscape:original-d="m 132.76823,53.798279 c -7.65022,-3.866237 -15.30043,-7.732474 -22.95064,-11.598712 -1.39846,-5.182507 -2.79686,-10.364805 -4.19528,-15.54721 5.34703,-0.329047 10.69385,-0.658082 16.04077,-0.987123 10.44727,6.416437 20.89413,12.832617 31.3412,19.248924 -5.8406,-0.658095 -11.68097,-1.316165 -17.52146,-1.974247 -1.48072,1.316191 -2.96137,2.632332 -4.44206,3.948496 0.57584,2.303338 1.15165,4.606581 1.72747,6.909872 z" />
</svg>
